<svg xmlns="http://www.w3.org/2000/svg" xmlns:xlink="http://www.w3.org/1999/xlink" width="40" zoomAndPan="magnify" viewBox="0 0 30 30.000001" height="40" preserveAspectRatio="xMidYMid meet" version="1.0"><defs><g/><clipPath id="f01d76dcb8"><path d="M 0.734375 3 L 29.039062 3 L 29.039062 28.238281 L 0.734375 28.238281 Z M 0.734375 3 " clip-rule="nonzero"/></clipPath><clipPath id="9927b9f156"><path d="M 1 0.660156 L 29 0.660156 L 29 28 L 1 28 Z M 1 0.660156 " clip-rule="nonzero"/></clipPath></defs><g clip-path="url(#f01d76dcb8)"><path fill="#000000" d="M 24.902344 24.054688 C 27.566406 21.378906 29.039062 17.8125 29.039062 14.019531 L 28.644531 14.019531 C 28.644531 17.703125 27.214844 21.171875 24.621094 23.773438 C 22.027344 26.375 18.558594 27.824219 14.886719 27.824219 C 11.214844 27.824219 7.753906 26.390625 5.160156 23.785156 C 2.5625 21.175781 1.128906 17.710938 1.128906 14.019531 C 1.128906 10.335938 2.558594 6.863281 5.15625 4.261719 L 4.875 3.980469 C 2.207031 6.664062 0.734375 10.226562 0.734375 14.019531 C 0.734375 17.8125 2.207031 21.382812 4.878906 24.066406 C 7.554688 26.75 11.105469 28.222656 14.886719 28.222656 C 18.660156 28.222656 22.222656 26.730469 24.898438 24.058594 C 24.898438 24.058594 24.898438 24.058594 24.902344 24.054688 Z M 24.902344 24.054688 " fill-opacity="1" fill-rule="nonzero"/></g><g clip-path="url(#9927b9f156)"><path fill="#000000" d="M 5.484375 23.460938 C 5.488281 23.46875 5.488281 23.46875 5.488281 23.46875 C 8 25.984375 11.335938 27.371094 14.886719 27.371094 C 18.4375 27.371094 21.777344 25.984375 24.289062 23.460938 C 26.800781 20.941406 28.183594 17.589844 28.183594 14.027344 L 27.496094 14.027344 C 27.496094 17.398438 26.183594 20.578125 23.800781 22.972656 C 21.421875 25.363281 18.253906 26.679688 14.886719 26.679688 C 11.519531 26.675781 8.351562 25.363281 5.976562 22.972656 C 3.59375 20.582031 2.277344 17.394531 2.277344 14.019531 C 2.277344 10.640625 3.589844 7.464844 5.96875 5.074219 C 8.351562 2.683594 11.519531 1.367188 14.886719 1.367188 C 18.253906 1.367188 21.421875 2.691406 23.800781 5.074219 C 26.183594 7.464844 27.496094 10.640625 27.496094 14.019531 L 28.183594 14.019531 C 28.183594 10.460938 26.808594 7.113281 24.292969 4.589844 C 24.292969 4.589844 24.292969 4.589844 24.289062 4.585938 C 24.289062 4.585938 24.289062 4.585938 24.28125 4.578125 C 21.78125 2.070312 18.429688 0.675781 14.886719 0.675781 C 11.335938 0.675781 7.996094 2.0625 5.484375 4.585938 C 2.96875 7.105469 1.585938 10.457031 1.585938 14.019531 C 1.585938 17.578125 2.976562 20.941406 5.484375 23.460938 Z M 5.484375 23.460938 " fill-opacity="1" fill-rule="nonzero"/></g><path fill="#000000" d="M 4.351562 8.550781 C 4.394531 8.550781 4.425781 8.527344 4.445312 8.492188 C 4.480469 8.429688 4.507812 8.371094 4.542969 8.308594 C 4.570312 8.257812 4.554688 8.195312 4.5 8.164062 C 4.449219 8.136719 4.386719 8.152344 4.359375 8.207031 C 4.324219 8.269531 4.289062 8.332031 4.253906 8.394531 C 4.226562 8.449219 4.25 8.511719 4.300781 8.539062 C 4.316406 8.546875 4.335938 8.550781 4.351562 8.550781 Z M 4.351562 8.550781 " fill-opacity="1" fill-rule="nonzero"/><path fill="#000000" d="M 3.898438 9.507812 C 3.941406 9.507812 3.980469 9.484375 3.996094 9.445312 C 4.027344 9.378906 4.054688 9.316406 4.078125 9.246094 C 4.101562 9.195312 4.078125 9.132812 4.027344 9.109375 C 3.972656 9.085938 3.910156 9.109375 3.886719 9.160156 C 3.859375 9.226562 3.832031 9.292969 3.800781 9.355469 C 3.777344 9.414062 3.800781 9.476562 3.859375 9.5 C 3.871094 9.507812 3.886719 9.507812 3.898438 9.507812 Z M 3.898438 9.507812 " fill-opacity="1" fill-rule="nonzero"/><path fill="#000000" d="M 4.878906 7.636719 C 4.914062 7.636719 4.949219 7.617188 4.964844 7.589844 C 5.007812 7.53125 5.039062 7.472656 5.082031 7.417969 C 5.117188 7.371094 5.097656 7.300781 5.050781 7.265625 C 5.007812 7.234375 4.9375 7.25 4.902344 7.296875 C 4.863281 7.355469 4.824219 7.417969 4.789062 7.472656 C 4.761719 7.519531 4.777344 7.589844 4.824219 7.617188 C 4.839844 7.628906 4.863281 7.636719 4.878906 7.636719 Z M 4.878906 7.636719 " fill-opacity="1" fill-rule="nonzero"/><path fill="#000000" d="M 3 12.230469 C 2.988281 12.300781 2.976562 12.367188 2.96875 12.441406 C 2.964844 12.5 3.003906 12.550781 3.0625 12.5625 C 3.066406 12.5625 3.074219 12.5625 3.074219 12.5625 C 3.125 12.5625 3.171875 12.523438 3.175781 12.472656 C 3.1875 12.402344 3.195312 12.332031 3.207031 12.265625 C 3.214844 12.207031 3.175781 12.148438 3.117188 12.144531 C 3.0625 12.136719 3.011719 12.171875 3 12.230469 Z M 3 12.230469 " fill-opacity="1" fill-rule="nonzero"/><path fill="#000000" d="M 2.894531 13.289062 C 2.890625 13.359375 2.890625 13.433594 2.882812 13.503906 C 2.882812 13.558594 2.925781 13.613281 2.988281 13.613281 L 2.992188 13.613281 C 3.050781 13.613281 3.097656 13.566406 3.097656 13.507812 C 3.101562 13.4375 3.101562 13.371094 3.109375 13.300781 C 3.101562 13.242188 3.0625 13.195312 3.003906 13.191406 C 2.945312 13.183594 2.894531 13.230469 2.894531 13.289062 Z M 2.894531 13.289062 " fill-opacity="1" fill-rule="nonzero"/><path fill="#000000" d="M 18.710938 2.8125 C 18.78125 2.835938 18.84375 2.859375 18.90625 2.878906 C 18.917969 2.886719 18.929688 2.886719 18.941406 2.886719 C 18.988281 2.886719 19.027344 2.859375 19.039062 2.816406 C 19.054688 2.757812 19.035156 2.703125 18.976562 2.679688 C 18.90625 2.65625 18.84375 2.632812 18.777344 2.609375 C 18.71875 2.59375 18.660156 2.621094 18.644531 2.671875 C 18.625 2.738281 18.65625 2.792969 18.710938 2.8125 Z M 18.710938 2.8125 " fill-opacity="1" fill-rule="nonzero"/><path fill="#000000" d="M 5.582031 6.738281 C 5.621094 6.679688 5.667969 6.628906 5.710938 6.570312 C 5.746094 6.523438 5.742188 6.460938 5.695312 6.421875 C 5.648438 6.386719 5.585938 6.390625 5.546875 6.4375 C 5.5 6.496094 5.460938 6.546875 5.414062 6.605469 C 5.375 6.652344 5.386719 6.714844 5.429688 6.753906 C 5.449219 6.773438 5.472656 6.777344 5.496094 6.777344 C 5.523438 6.777344 5.558594 6.765625 5.582031 6.738281 Z M 5.582031 6.738281 " fill-opacity="1" fill-rule="nonzero"/><path fill="#000000" d="M 6.25 5.9375 C 6.296875 5.886719 6.347656 5.832031 6.394531 5.789062 C 6.433594 5.746094 6.433594 5.679688 6.394531 5.636719 C 6.355469 5.597656 6.285156 5.597656 6.246094 5.636719 C 6.195312 5.691406 6.148438 5.742188 6.097656 5.792969 C 6.054688 5.832031 6.054688 5.902344 6.101562 5.941406 C 6.125 5.960938 6.152344 5.972656 6.175781 5.972656 C 6.207031 5.972656 6.234375 5.960938 6.25 5.9375 Z M 6.25 5.9375 " fill-opacity="1" fill-rule="nonzero"/><path fill="#000000" d="M 3.441406 17.710938 C 3.453125 17.757812 3.496094 17.785156 3.542969 17.785156 C 3.554688 17.785156 3.566406 17.785156 3.578125 17.78125 C 3.636719 17.761719 3.664062 17.703125 3.648438 17.648438 C 3.617188 17.578125 3.601562 17.515625 3.578125 17.445312 C 3.5625 17.386719 3.503906 17.359375 3.445312 17.375 C 3.390625 17.394531 3.359375 17.453125 3.378906 17.507812 C 3.398438 17.578125 3.417969 17.648438 3.441406 17.710938 Z M 3.441406 17.710938 " fill-opacity="1" fill-rule="nonzero"/><path fill="#000000" d="M 3.238281 11.523438 C 3.246094 11.523438 3.257812 11.523438 3.261719 11.523438 C 3.308594 11.523438 3.355469 11.488281 3.367188 11.441406 C 3.382812 11.371094 3.394531 11.304688 3.410156 11.238281 C 3.421875 11.175781 3.390625 11.117188 3.332031 11.105469 C 3.273438 11.097656 3.214844 11.128906 3.207031 11.1875 C 3.1875 11.257812 3.171875 11.324219 3.160156 11.394531 C 3.148438 11.453125 3.183594 11.511719 3.238281 11.523438 Z M 3.238281 11.523438 " fill-opacity="1" fill-rule="nonzero"/><path fill="#000000" d="M 2.980469 15.632812 C 2.988281 15.683594 3.03125 15.722656 3.085938 15.722656 C 3.089844 15.722656 3.097656 15.722656 3.097656 15.722656 C 3.152344 15.71875 3.195312 15.660156 3.183594 15.601562 C 3.171875 15.535156 3.164062 15.464844 3.160156 15.394531 C 3.152344 15.339844 3.101562 15.296875 3.042969 15.304688 C 2.988281 15.308594 2.945312 15.363281 2.953125 15.417969 C 2.957031 15.488281 2.96875 15.5625 2.980469 15.632812 Z M 2.980469 15.632812 " fill-opacity="1" fill-rule="nonzero"/><path fill="#000000" d="M 17.910156 2.570312 C 17.921875 2.570312 17.925781 2.574219 17.9375 2.574219 C 17.984375 2.574219 18.03125 2.546875 18.042969 2.496094 C 18.058594 2.4375 18.023438 2.378906 17.964844 2.367188 C 17.898438 2.351562 17.828125 2.332031 17.761719 2.316406 C 17.703125 2.304688 17.644531 2.339844 17.632812 2.390625 C 17.617188 2.449219 17.652344 2.507812 17.707031 2.519531 C 17.777344 2.535156 17.847656 2.550781 17.910156 2.570312 Z M 17.910156 2.570312 " fill-opacity="1" fill-rule="nonzero"/><path fill="#000000" d="M 3.164062 16.6875 C 3.175781 16.738281 3.222656 16.765625 3.269531 16.765625 C 3.273438 16.765625 3.285156 16.765625 3.292969 16.765625 C 3.347656 16.753906 3.382812 16.695312 3.371094 16.640625 C 3.355469 16.566406 3.335938 16.5 3.324219 16.433594 C 3.3125 16.375 3.257812 16.339844 3.199219 16.351562 C 3.140625 16.363281 3.109375 16.421875 3.117188 16.476562 C 3.136719 16.546875 3.148438 16.617188 3.164062 16.6875 Z M 3.164062 16.6875 " fill-opacity="1" fill-rule="nonzero"/><path fill="#000000" d="M 3.496094 10.496094 C 3.507812 10.503906 3.519531 10.503906 3.53125 10.503906 C 3.578125 10.503906 3.617188 10.472656 3.636719 10.429688 C 3.660156 10.359375 3.675781 10.296875 3.699219 10.226562 C 3.714844 10.167969 3.6875 10.109375 3.628906 10.09375 C 3.574219 10.078125 3.515625 10.105469 3.496094 10.164062 C 3.476562 10.230469 3.453125 10.300781 3.429688 10.363281 C 3.410156 10.421875 3.441406 10.480469 3.496094 10.496094 Z M 3.496094 10.496094 " fill-opacity="1" fill-rule="nonzero"/><path fill="#000000" d="M 19.871094 3.285156 C 19.886719 3.289062 19.898438 3.296875 19.917969 3.296875 C 19.957031 3.296875 19.996094 3.273438 20.015625 3.230469 C 20.039062 3.179688 20.015625 3.117188 19.964844 3.09375 C 19.898438 3.066406 19.835938 3.035156 19.769531 3.007812 C 19.714844 2.984375 19.652344 3.007812 19.628906 3.058594 C 19.605469 3.109375 19.628906 3.175781 19.683594 3.195312 C 19.746094 3.226562 19.808594 3.253906 19.871094 3.285156 Z M 19.871094 3.285156 " fill-opacity="1" fill-rule="nonzero"/><path fill="#000000" d="M 2.882812 14.574219 C 2.882812 14.625 2.929688 14.671875 2.992188 14.671875 C 3.050781 14.671875 3.097656 14.617188 3.097656 14.5625 C 3.089844 14.492188 3.089844 14.421875 3.089844 14.355469 C 3.089844 14.296875 3.039062 14.25 2.980469 14.25 C 2.925781 14.25 2.878906 14.300781 2.878906 14.359375 C 2.878906 14.429688 2.882812 14.503906 2.882812 14.574219 Z M 2.882812 14.574219 " fill-opacity="1" fill-rule="nonzero"/><path fill="#000000" d="M 23.238281 5.65625 C 23.25 5.667969 23.265625 5.683594 23.273438 5.691406 C 23.296875 5.714844 23.320312 5.71875 23.347656 5.71875 C 23.375 5.71875 23.398438 5.707031 23.421875 5.691406 C 23.460938 5.648438 23.460938 5.582031 23.421875 5.539062 C 23.410156 5.527344 23.394531 5.511719 23.382812 5.5 C 23.34375 5.464844 23.308594 5.425781 23.273438 5.390625 C 23.234375 5.351562 23.164062 5.351562 23.125 5.390625 C 23.082031 5.429688 23.082031 5.5 23.125 5.539062 C 23.160156 5.574219 23.199219 5.621094 23.238281 5.65625 Z M 23.238281 5.65625 " fill-opacity="1" fill-rule="nonzero"/><path fill="#000000" d="M 16.894531 2.351562 C 16.898438 2.351562 16.90625 2.351562 16.910156 2.351562 C 16.960938 2.351562 17.007812 2.316406 17.015625 2.265625 C 17.027344 2.207031 16.984375 2.148438 16.929688 2.144531 C 16.859375 2.132812 16.789062 2.121094 16.714844 2.109375 C 16.660156 2.097656 16.605469 2.136719 16.59375 2.195312 C 16.582031 2.253906 16.628906 2.304688 16.6875 2.316406 C 16.757812 2.328125 16.824219 2.339844 16.894531 2.351562 Z M 16.894531 2.351562 " fill-opacity="1" fill-rule="nonzero"/><path fill="#000000" d="M 7.003906 5.199219 C 7.054688 5.15625 7.105469 5.109375 7.15625 5.0625 C 7.203125 5.023438 7.210938 4.957031 7.167969 4.914062 C 7.128906 4.867188 7.066406 4.859375 7.019531 4.902344 C 6.96875 4.949219 6.910156 4.992188 6.859375 5.046875 C 6.820312 5.085938 6.8125 5.15625 6.855469 5.195312 C 6.875 5.21875 6.90625 5.230469 6.933594 5.230469 C 6.957031 5.230469 6.984375 5.21875 7.003906 5.199219 Z M 7.003906 5.199219 " fill-opacity="1" fill-rule="nonzero"/><path fill="#000000" d="M 3.789062 18.378906 C 3.738281 18.402344 3.710938 18.464844 3.734375 18.515625 C 3.761719 18.578125 3.785156 18.648438 3.8125 18.710938 C 3.832031 18.753906 3.871094 18.777344 3.910156 18.777344 C 3.921875 18.777344 3.941406 18.777344 3.949219 18.769531 C 4.003906 18.746094 4.03125 18.683594 4.007812 18.632812 C 3.980469 18.5625 3.949219 18.5 3.929688 18.4375 C 3.90625 18.382812 3.847656 18.355469 3.789062 18.378906 Z M 3.789062 18.378906 " fill-opacity="1" fill-rule="nonzero"/><path fill="#000000" d="M 26.898438 13.996094 C 26.898438 13.941406 26.851562 13.894531 26.796875 13.894531 C 26.738281 13.894531 26.691406 13.941406 26.691406 13.996094 L 26.691406 14.019531 L 26.90625 14.019531 Z M 26.898438 13.996094 " fill-opacity="1" fill-rule="nonzero"/><path fill="#000000" d="M 7.804688 4.539062 C 7.863281 4.5 7.914062 4.457031 7.972656 4.410156 C 8.019531 4.378906 8.03125 4.3125 7.996094 4.261719 C 7.960938 4.210938 7.898438 4.203125 7.847656 4.238281 C 7.789062 4.28125 7.730469 4.324219 7.675781 4.367188 C 7.628906 4.398438 7.617188 4.46875 7.652344 4.515625 C 7.679688 4.542969 7.714844 4.5625 7.742188 4.5625 C 7.765625 4.5625 7.789062 4.554688 7.804688 4.539062 Z M 7.804688 4.539062 " fill-opacity="1" fill-rule="nonzero"/><path fill="#000000" d="M 26.894531 14.238281 C 26.894531 14.171875 26.894531 14.09375 26.894531 14.027344 L 26.679688 14.027344 C 26.6875 14.09375 26.6875 14.164062 26.6875 14.234375 C 26.6875 14.289062 26.734375 14.34375 26.789062 14.34375 C 26.847656 14.34375 26.894531 14.296875 26.894531 14.238281 Z M 26.894531 14.238281 " fill-opacity="1" fill-rule="nonzero"/><path fill="#000000" d="M 15.871094 2.003906 C 15.804688 2 15.730469 1.992188 15.660156 1.988281 C 15.601562 1.984375 15.550781 2.027344 15.546875 2.085938 C 15.546875 2.148438 15.589844 2.203125 15.648438 2.203125 C 15.71875 2.207031 15.785156 2.210938 15.855469 2.21875 C 15.859375 2.21875 15.859375 2.21875 15.867188 2.21875 C 15.917969 2.21875 15.96875 2.179688 15.96875 2.121094 C 15.976562 2.0625 15.929688 2.011719 15.871094 2.003906 Z M 15.871094 2.003906 " fill-opacity="1" fill-rule="nonzero"/><path fill="#000000" d="M 8.613281 3.960938 C 8.632812 3.960938 8.65625 3.957031 8.671875 3.945312 C 8.730469 3.910156 8.792969 3.871094 8.851562 3.835938 C 8.902344 3.808594 8.917969 3.738281 8.886719 3.691406 C 8.855469 3.640625 8.792969 3.625 8.742188 3.65625 C 8.679688 3.691406 8.621094 3.734375 8.558594 3.765625 C 8.507812 3.796875 8.496094 3.863281 8.523438 3.910156 C 8.546875 3.945312 8.582031 3.960938 8.613281 3.960938 Z M 8.613281 3.960938 " fill-opacity="1" fill-rule="nonzero"/><path fill="#000000" d="M 18.734375 25.222656 C 18.671875 25.246094 18.601562 25.269531 18.535156 25.292969 C 18.476562 25.308594 18.449219 25.371094 18.464844 25.425781 C 18.484375 25.472656 18.523438 25.5 18.5625 25.5 C 18.574219 25.5 18.585938 25.5 18.597656 25.492188 C 18.667969 25.472656 18.730469 25.449219 18.796875 25.425781 C 18.855469 25.40625 18.882812 25.34375 18.863281 25.292969 C 18.851562 25.234375 18.792969 25.207031 18.734375 25.222656 Z M 18.734375 25.222656 " fill-opacity="1" fill-rule="nonzero"/><path fill="#000000" d="M 25.828125 9.035156 C 25.796875 8.972656 25.769531 8.90625 25.734375 8.84375 C 25.710938 8.792969 25.648438 8.769531 25.589844 8.792969 C 25.539062 8.816406 25.515625 8.878906 25.539062 8.9375 C 25.574219 8.996094 25.601562 9.058594 25.632812 9.121094 C 25.648438 9.160156 25.6875 9.183594 25.730469 9.183594 C 25.746094 9.183594 25.757812 9.179688 25.773438 9.171875 C 25.828125 9.148438 25.847656 9.085938 25.828125 9.035156 Z M 25.828125 9.035156 " fill-opacity="1" fill-rule="nonzero"/><path fill="#000000" d="M 17.738281 25.523438 C 17.667969 25.539062 17.597656 25.558594 17.535156 25.570312 C 17.480469 25.582031 17.445312 25.636719 17.457031 25.695312 C 17.46875 25.746094 17.511719 25.777344 17.558594 25.777344 C 17.566406 25.777344 17.578125 25.777344 17.582031 25.777344 C 17.652344 25.757812 17.71875 25.742188 17.789062 25.722656 C 17.847656 25.710938 17.878906 25.65625 17.863281 25.597656 C 17.851562 25.539062 17.792969 25.503906 17.738281 25.523438 Z M 17.738281 25.523438 " fill-opacity="1" fill-rule="nonzero"/><path fill="#000000" d="M 16.710938 25.730469 C 16.640625 25.742188 16.574219 25.753906 16.503906 25.757812 C 16.445312 25.765625 16.40625 25.820312 16.410156 25.878906 C 16.417969 25.929688 16.464844 25.972656 16.515625 25.972656 C 16.519531 25.972656 16.527344 25.972656 16.53125 25.972656 C 16.601562 25.960938 16.671875 25.953125 16.746094 25.941406 C 16.800781 25.929688 16.84375 25.878906 16.832031 25.820312 C 16.824219 25.757812 16.765625 25.71875 16.710938 25.730469 Z M 16.710938 25.730469 " fill-opacity="1" fill-rule="nonzero"/><path fill="#000000" d="M 26.480469 10.835938 C 26.464844 10.777344 26.40625 10.746094 26.347656 10.761719 C 26.289062 10.777344 26.257812 10.835938 26.273438 10.894531 C 26.289062 10.957031 26.308594 11.027344 26.324219 11.097656 C 26.335938 11.140625 26.382812 11.175781 26.429688 11.175781 C 26.441406 11.175781 26.445312 11.175781 26.457031 11.171875 C 26.515625 11.152344 26.550781 11.097656 26.53125 11.042969 C 26.515625 10.976562 26.496094 10.90625 26.480469 10.835938 Z M 26.480469 10.835938 " fill-opacity="1" fill-rule="nonzero"/><path fill="#000000" d="M 26.214844 10.019531 C 26.195312 9.949219 26.171875 9.886719 26.140625 9.816406 C 26.117188 9.761719 26.0625 9.738281 26.003906 9.753906 C 25.945312 9.777344 25.921875 9.835938 25.941406 9.890625 C 25.976562 9.957031 26 10.023438 26.019531 10.089844 C 26.039062 10.132812 26.078125 10.15625 26.117188 10.15625 C 26.128906 10.15625 26.140625 10.15625 26.152344 10.152344 C 26.210938 10.132812 26.238281 10.070312 26.214844 10.019531 Z M 26.214844 10.019531 " fill-opacity="1" fill-rule="nonzero"/><path fill="#000000" d="M 24.691406 7.347656 C 24.714844 7.347656 24.730469 7.34375 24.746094 7.332031 C 24.792969 7.296875 24.804688 7.234375 24.777344 7.179688 C 24.734375 7.125 24.695312 7.066406 24.65625 7.007812 C 24.621094 6.960938 24.558594 6.949219 24.507812 6.984375 C 24.460938 7.019531 24.449219 7.082031 24.484375 7.136719 C 24.523438 7.1875 24.5625 7.246094 24.605469 7.300781 C 24.628906 7.332031 24.65625 7.347656 24.691406 7.347656 Z M 24.691406 7.347656 " fill-opacity="1" fill-rule="nonzero"/><path fill="#000000" d="M 25.34375 8.085938 C 25.308594 8.023438 25.277344 7.964844 25.234375 7.902344 C 25.207031 7.847656 25.144531 7.832031 25.09375 7.867188 C 25.039062 7.894531 25.023438 7.957031 25.058594 8.011719 C 25.09375 8.066406 25.125 8.125 25.160156 8.1875 C 25.179688 8.222656 25.21875 8.242188 25.253906 8.242188 C 25.269531 8.242188 25.285156 8.234375 25.304688 8.230469 C 25.355469 8.199219 25.371094 8.136719 25.34375 8.085938 Z M 25.34375 8.085938 " fill-opacity="1" fill-rule="nonzero"/><path fill="#000000" d="M 23.796875 22.0625 C 23.824219 22.0625 23.851562 22.050781 23.875 22.027344 C 23.921875 21.976562 23.96875 21.917969 24.011719 21.867188 C 24.054688 21.820312 24.046875 21.757812 24 21.71875 C 23.957031 21.675781 23.886719 21.683594 23.851562 21.730469 C 23.808594 21.78125 23.761719 21.832031 23.714844 21.882812 C 23.675781 21.929688 23.679688 21.992188 23.726562 22.035156 C 23.75 22.050781 23.773438 22.0625 23.796875 22.0625 Z M 23.796875 22.0625 " fill-opacity="1" fill-rule="nonzero"/><path fill="#000000" d="M 26.289062 17.464844 C 26.300781 17.464844 26.308594 17.46875 26.320312 17.46875 C 26.367188 17.46875 26.40625 17.441406 26.421875 17.394531 C 26.441406 17.324219 26.464844 17.253906 26.480469 17.1875 C 26.496094 17.128906 26.464844 17.070312 26.40625 17.054688 C 26.347656 17.035156 26.289062 17.070312 26.273438 17.128906 C 26.257812 17.199219 26.238281 17.261719 26.214844 17.332031 C 26.199219 17.386719 26.234375 17.445312 26.289062 17.464844 Z M 26.289062 17.464844 " fill-opacity="1" fill-rule="nonzero"/><path fill="#000000" d="M 15.671875 25.84375 C 15.601562 25.851562 15.535156 25.855469 15.464844 25.855469 C 15.40625 25.855469 15.363281 25.910156 15.367188 25.964844 C 15.367188 26.023438 15.417969 26.070312 15.472656 26.070312 L 15.476562 26.070312 C 15.546875 26.0625 15.621094 26.0625 15.6875 26.058594 C 15.746094 26.050781 15.792969 26.007812 15.785156 25.941406 C 15.78125 25.878906 15.734375 25.839844 15.671875 25.84375 Z M 15.671875 25.84375 " fill-opacity="1" fill-rule="nonzero"/><path fill="#000000" d="M 26.097656 18.066406 C 26.042969 18.042969 25.980469 18.074219 25.957031 18.128906 C 25.933594 18.195312 25.90625 18.261719 25.882812 18.328125 C 25.859375 18.378906 25.890625 18.441406 25.941406 18.464844 C 25.953125 18.46875 25.964844 18.46875 25.980469 18.46875 C 26.019531 18.46875 26.0625 18.449219 26.078125 18.402344 C 26.105469 18.332031 26.128906 18.269531 26.152344 18.199219 C 26.175781 18.148438 26.148438 18.085938 26.097656 18.066406 Z M 26.097656 18.066406 " fill-opacity="1" fill-rule="nonzero"/><path fill="#000000" d="M 24.988281 20.347656 C 25.003906 20.359375 25.023438 20.363281 25.046875 20.363281 C 25.082031 20.363281 25.113281 20.347656 25.136719 20.3125 C 25.171875 20.25 25.210938 20.191406 25.246094 20.128906 C 25.277344 20.078125 25.257812 20.011719 25.207031 19.984375 C 25.15625 19.957031 25.09375 19.972656 25.0625 20.023438 C 25.027344 20.082031 24.996094 20.144531 24.953125 20.203125 C 24.925781 20.253906 24.9375 20.316406 24.988281 20.347656 Z M 24.988281 20.347656 " fill-opacity="1" fill-rule="nonzero"/><path fill="#000000" d="M 4.214844 19.339844 C 4.164062 19.367188 4.140625 19.433594 4.167969 19.484375 C 4.203125 19.546875 4.230469 19.609375 4.265625 19.671875 C 4.285156 19.707031 4.324219 19.730469 4.359375 19.730469 C 4.375 19.730469 4.394531 19.726562 4.410156 19.71875 C 4.460938 19.691406 4.480469 19.628906 4.457031 19.574219 C 4.421875 19.511719 4.386719 19.449219 4.359375 19.386719 C 4.328125 19.332031 4.265625 19.3125 4.214844 19.339844 Z M 4.214844 19.339844 " fill-opacity="1" fill-rule="nonzero"/><path fill="#000000" d="M 22.359375 23.191406 C 22.308594 23.238281 22.253906 23.277344 22.199219 23.324219 C 22.15625 23.359375 22.148438 23.425781 22.183594 23.472656 C 22.207031 23.5 22.234375 23.511719 22.261719 23.511719 C 22.285156 23.511719 22.308594 23.507812 22.328125 23.492188 C 22.382812 23.445312 22.4375 23.402344 22.492188 23.359375 C 22.539062 23.324219 22.542969 23.253906 22.511719 23.207031 C 22.46875 23.164062 22.40625 23.15625 22.359375 23.191406 Z M 22.359375 23.191406 " fill-opacity="1" fill-rule="nonzero"/><path fill="#000000" d="M 19.703125 24.835938 C 19.640625 24.867188 19.578125 24.894531 19.515625 24.925781 C 19.464844 24.945312 19.433594 25.011719 19.457031 25.0625 C 19.476562 25.101562 19.515625 25.125 19.554688 25.125 C 19.566406 25.125 19.585938 25.125 19.597656 25.121094 C 19.660156 25.089844 19.726562 25.0625 19.789062 25.035156 C 19.84375 25.011719 19.867188 24.945312 19.84375 24.894531 C 19.820312 24.835938 19.757812 24.816406 19.703125 24.835938 Z M 19.703125 24.835938 " fill-opacity="1" fill-rule="nonzero"/><path fill="#000000" d="M 24.496094 20.898438 C 24.453125 20.957031 24.414062 21.015625 24.375 21.066406 C 24.339844 21.113281 24.351562 21.183594 24.398438 21.214844 C 24.414062 21.226562 24.4375 21.238281 24.460938 21.238281 C 24.496094 21.238281 24.523438 21.222656 24.546875 21.199219 C 24.585938 21.140625 24.632812 21.085938 24.671875 21.027344 C 24.703125 20.976562 24.691406 20.910156 24.644531 20.875 C 24.597656 20.84375 24.53125 20.855469 24.496094 20.898438 Z M 24.496094 20.898438 " fill-opacity="1" fill-rule="nonzero"/><path fill="#000000" d="M 20.640625 24.371094 C 20.578125 24.40625 20.519531 24.441406 20.457031 24.46875 C 20.40625 24.496094 20.386719 24.5625 20.410156 24.613281 C 20.425781 24.648438 20.46875 24.671875 20.503906 24.671875 C 20.519531 24.671875 20.535156 24.664062 20.554688 24.660156 C 20.617188 24.625 20.679688 24.589844 20.738281 24.554688 C 20.789062 24.527344 20.804688 24.464844 20.777344 24.410156 C 20.753906 24.359375 20.6875 24.34375 20.640625 24.371094 Z M 20.640625 24.371094 " fill-opacity="1" fill-rule="nonzero"/><path fill="#000000" d="M 26.710938 11.871094 C 26.699219 11.816406 26.648438 11.773438 26.589844 11.785156 C 26.53125 11.796875 26.492188 11.855469 26.503906 11.914062 C 26.515625 11.980469 26.527344 12.050781 26.539062 12.121094 C 26.542969 12.171875 26.589844 12.207031 26.640625 12.207031 C 26.648438 12.207031 26.652344 12.207031 26.65625 12.207031 C 26.714844 12.195312 26.753906 12.144531 26.742188 12.085938 C 26.734375 12.015625 26.722656 11.949219 26.710938 11.871094 Z M 26.710938 11.871094 " fill-opacity="1" fill-rule="nonzero"/><path fill="#000000" d="M 21.523438 23.820312 C 21.464844 23.859375 21.410156 23.898438 21.351562 23.933594 C 21.304688 23.96875 21.289062 24.03125 21.324219 24.078125 C 21.34375 24.105469 21.375 24.125 21.410156 24.125 C 21.425781 24.125 21.449219 24.117188 21.464844 24.105469 C 21.523438 24.066406 21.585938 24.027344 21.644531 23.984375 C 21.691406 23.949219 21.707031 23.886719 21.671875 23.835938 C 21.636719 23.796875 21.574219 23.785156 21.523438 23.820312 Z M 21.523438 23.820312 " fill-opacity="1" fill-rule="nonzero"/><path fill="#000000" d="M 26.640625 12.949219 C 26.648438 13.019531 26.652344 13.085938 26.65625 13.15625 C 26.664062 13.214844 26.710938 13.253906 26.761719 13.253906 L 26.765625 13.253906 C 26.824219 13.25 26.871094 13.195312 26.863281 13.140625 C 26.859375 13.070312 26.851562 12.996094 26.847656 12.925781 C 26.839844 12.867188 26.789062 12.824219 26.734375 12.828125 C 26.675781 12.839844 26.636719 12.890625 26.640625 12.949219 Z M 26.640625 12.949219 " fill-opacity="1" fill-rule="nonzero"/><path fill="#000000" d="M 12.351562 25.597656 C 12.292969 25.585938 12.234375 25.621094 12.222656 25.679688 C 12.210938 25.734375 12.246094 25.792969 12.304688 25.804688 C 12.371094 25.820312 12.441406 25.832031 12.511719 25.851562 C 12.515625 25.851562 12.523438 25.851562 12.535156 25.851562 C 12.585938 25.851562 12.625 25.816406 12.636719 25.765625 C 12.648438 25.707031 12.613281 25.648438 12.554688 25.636719 C 12.488281 25.625 12.417969 25.609375 12.351562 25.597656 Z M 12.351562 25.597656 " fill-opacity="1" fill-rule="nonzero"/><path fill="#000000" d="M 8.511719 23.996094 C 8.460938 23.96875 8.398438 23.980469 8.367188 24.03125 C 8.339844 24.082031 8.351562 24.148438 8.402344 24.175781 C 8.460938 24.214844 8.523438 24.25 8.582031 24.289062 C 8.597656 24.300781 8.613281 24.308594 8.636719 24.308594 C 8.671875 24.308594 8.707031 24.289062 8.730469 24.257812 C 8.753906 24.203125 8.734375 24.140625 8.691406 24.105469 C 8.632812 24.070312 8.570312 24.03125 8.511719 23.996094 Z M 8.511719 23.996094 " fill-opacity="1" fill-rule="nonzero"/><path fill="#000000" d="M 6.710938 22.71875 C 6.671875 22.757812 6.675781 22.828125 6.714844 22.867188 C 6.769531 22.914062 6.820312 22.964844 6.871094 23.011719 C 6.894531 23.03125 6.917969 23.042969 6.941406 23.042969 C 6.96875 23.042969 6.996094 23.03125 7.019531 23.007812 C 7.058594 22.960938 7.054688 22.898438 7.015625 22.855469 C 6.964844 22.804688 6.910156 22.757812 6.859375 22.714844 C 6.820312 22.671875 6.75 22.679688 6.710938 22.71875 Z M 6.710938 22.71875 " fill-opacity="1" fill-rule="nonzero"/><path fill="#000000" d="M 7.65625 23.390625 C 7.609375 23.359375 7.542969 23.363281 7.507812 23.410156 C 7.472656 23.457031 7.480469 23.523438 7.523438 23.558594 C 7.582031 23.605469 7.640625 23.644531 7.695312 23.6875 C 7.714844 23.699219 7.738281 23.710938 7.761719 23.710938 C 7.792969 23.710938 7.824219 23.691406 7.847656 23.667969 C 7.878906 23.617188 7.871094 23.554688 7.824219 23.519531 C 7.765625 23.480469 7.714844 23.433594 7.65625 23.390625 Z M 7.65625 23.390625 " fill-opacity="1" fill-rule="nonzero"/><path fill="#000000" d="M 9.417969 24.519531 C 9.367188 24.492188 9.304688 24.515625 9.273438 24.566406 C 9.246094 24.617188 9.269531 24.683594 9.320312 24.710938 C 9.382812 24.746094 9.445312 24.773438 9.511719 24.808594 C 9.527344 24.816406 9.539062 24.820312 9.554688 24.820312 C 9.597656 24.820312 9.628906 24.796875 9.648438 24.761719 C 9.671875 24.710938 9.652344 24.648438 9.601562 24.617188 C 9.539062 24.589844 9.476562 24.554688 9.417969 24.519531 Z M 9.417969 24.519531 " fill-opacity="1" fill-rule="nonzero"/><path fill="#000000" d="M 26.554688 16.445312 C 26.5625 16.445312 26.566406 16.445312 26.578125 16.445312 C 26.628906 16.445312 26.667969 16.410156 26.679688 16.359375 C 26.691406 16.289062 26.710938 16.21875 26.722656 16.148438 C 26.722656 16.085938 26.6875 16.035156 26.628906 16.023438 C 26.570312 16.011719 26.515625 16.050781 26.507812 16.109375 C 26.496094 16.179688 26.484375 16.25 26.46875 16.316406 C 26.457031 16.375 26.496094 16.433594 26.554688 16.445312 Z M 26.554688 16.445312 " fill-opacity="1" fill-rule="nonzero"/><path fill="#000000" d="M 4.726562 20.261719 C 4.671875 20.289062 4.664062 20.359375 4.691406 20.40625 C 4.730469 20.460938 4.765625 20.527344 4.804688 20.582031 C 4.828125 20.613281 4.855469 20.628906 4.890625 20.628906 C 4.910156 20.628906 4.933594 20.625 4.949219 20.613281 C 5 20.578125 5.011719 20.515625 4.976562 20.46875 C 4.945312 20.417969 4.910156 20.359375 4.867188 20.296875 C 4.839844 20.242188 4.769531 20.230469 4.726562 20.261719 Z M 4.726562 20.261719 " fill-opacity="1" fill-rule="nonzero"/><path fill="#000000" d="M 20.902344 3.589844 C 20.839844 3.554688 20.785156 3.519531 20.71875 3.484375 C 20.667969 3.457031 20.605469 3.472656 20.578125 3.523438 C 20.546875 3.578125 20.566406 3.640625 20.617188 3.667969 C 20.679688 3.703125 20.738281 3.738281 20.800781 3.773438 C 20.816406 3.785156 20.835938 3.785156 20.851562 3.785156 C 20.886719 3.785156 20.925781 3.765625 20.945312 3.734375 C 20.972656 3.679688 20.957031 3.617188 20.902344 3.589844 Z M 20.902344 3.589844 " fill-opacity="1" fill-rule="nonzero"/><path fill="#000000" d="M 5.3125 21.136719 C 5.265625 21.171875 5.253906 21.238281 5.289062 21.285156 C 5.328125 21.34375 5.375 21.402344 5.417969 21.453125 C 5.441406 21.480469 5.472656 21.492188 5.5 21.492188 C 5.523438 21.492188 5.546875 21.488281 5.5625 21.46875 C 5.609375 21.433594 5.613281 21.367188 5.582031 21.320312 C 5.546875 21.273438 5.503906 21.214844 5.460938 21.160156 C 5.425781 21.113281 5.355469 21.101562 5.3125 21.136719 Z M 5.3125 21.136719 " fill-opacity="1" fill-rule="nonzero"/><path fill="#000000" d="M 5.976562 21.960938 C 5.929688 22 5.929688 22.0625 5.96875 22.109375 C 6.015625 22.160156 6.066406 22.210938 6.113281 22.265625 C 6.136719 22.289062 6.164062 22.296875 6.1875 22.296875 C 6.21875 22.296875 6.238281 22.289062 6.261719 22.269531 C 6.308594 22.230469 6.308594 22.167969 6.269531 22.121094 C 6.222656 22.070312 6.171875 22.015625 6.125 21.964844 C 6.085938 21.917969 6.023438 21.917969 5.976562 21.960938 Z M 5.976562 21.960938 " fill-opacity="1" fill-rule="nonzero"/><path fill="#000000" d="M 10.359375 24.964844 C 10.308594 24.941406 10.246094 24.96875 10.222656 25.023438 C 10.199219 25.074219 10.226562 25.136719 10.277344 25.160156 C 10.34375 25.1875 10.410156 25.210938 10.472656 25.242188 C 10.484375 25.246094 10.496094 25.246094 10.515625 25.246094 C 10.554688 25.246094 10.59375 25.222656 10.613281 25.175781 C 10.632812 25.132812 10.613281 25.066406 10.554688 25.042969 C 10.492188 25.023438 10.421875 24.992188 10.359375 24.964844 Z M 10.359375 24.964844 " fill-opacity="1" fill-rule="nonzero"/><path fill="#000000" d="M 23.972656 6.46875 C 23.996094 6.488281 24.023438 6.507812 24.054688 6.507812 C 24.078125 6.507812 24.097656 6.5 24.121094 6.484375 C 24.167969 6.449219 24.175781 6.378906 24.132812 6.335938 C 24.089844 6.277344 24.042969 6.226562 23.996094 6.171875 C 23.957031 6.128906 23.894531 6.121094 23.847656 6.160156 C 23.800781 6.203125 23.796875 6.265625 23.835938 6.3125 C 23.886719 6.359375 23.925781 6.410156 23.972656 6.46875 Z M 23.972656 6.46875 " fill-opacity="1" fill-rule="nonzero"/><path fill="#000000" d="M 23.136719 22.496094 C 23.082031 22.539062 23.039062 22.59375 22.988281 22.636719 C 22.945312 22.679688 22.941406 22.742188 22.980469 22.789062 C 23.003906 22.8125 23.027344 22.824219 23.054688 22.824219 C 23.082031 22.824219 23.105469 22.8125 23.128906 22.792969 C 23.179688 22.746094 23.234375 22.695312 23.285156 22.644531 C 23.324219 22.605469 23.324219 22.535156 23.285156 22.496094 C 23.246094 22.453125 23.175781 22.453125 23.136719 22.496094 Z M 23.136719 22.496094 " fill-opacity="1" fill-rule="nonzero"/><path fill="#000000" d="M 26.832031 15.304688 C 26.835938 15.234375 26.839844 15.160156 26.851562 15.089844 C 26.859375 15.027344 26.8125 14.980469 26.753906 14.976562 C 26.699219 14.96875 26.648438 15.015625 26.640625 15.074219 C 26.636719 15.144531 26.628906 15.210938 26.625 15.28125 C 26.617188 15.339844 26.65625 15.390625 26.714844 15.394531 C 26.722656 15.394531 26.722656 15.394531 26.726562 15.394531 C 26.777344 15.394531 26.824219 15.355469 26.832031 15.304688 Z M 26.832031 15.304688 " fill-opacity="1" fill-rule="nonzero"/><path fill="#000000" d="M 22.574219 5 C 22.601562 5 22.628906 4.988281 22.652344 4.957031 C 22.695312 4.914062 22.6875 4.847656 22.640625 4.808594 C 22.589844 4.761719 22.53125 4.71875 22.476562 4.671875 C 22.429688 4.636719 22.367188 4.640625 22.328125 4.6875 C 22.285156 4.734375 22.296875 4.796875 22.34375 4.839844 C 22.402344 4.890625 22.453125 4.9375 22.503906 4.976562 C 22.523438 4.992188 22.550781 5 22.574219 5 Z M 22.574219 5 " fill-opacity="1" fill-rule="nonzero"/><path fill="#000000" d="M 25.695312 19.046875 C 25.644531 19.023438 25.578125 19.046875 25.554688 19.097656 C 25.527344 19.160156 25.492188 19.222656 25.464844 19.289062 C 25.4375 19.339844 25.460938 19.402344 25.511719 19.433594 C 25.527344 19.4375 25.539062 19.441406 25.554688 19.441406 C 25.597656 19.441406 25.632812 19.421875 25.648438 19.386719 C 25.683594 19.324219 25.710938 19.257812 25.738281 19.195312 C 25.769531 19.132812 25.746094 19.070312 25.695312 19.046875 Z M 25.695312 19.046875 " fill-opacity="1" fill-rule="nonzero"/><path fill="#000000" d="M 21.679688 4.335938 C 21.695312 4.347656 21.71875 4.355469 21.742188 4.355469 C 21.777344 4.355469 21.804688 4.335938 21.828125 4.308594 C 21.863281 4.261719 21.851562 4.191406 21.804688 4.160156 C 21.746094 4.117188 21.691406 4.078125 21.625 4.039062 C 21.582031 4.003906 21.511719 4.015625 21.476562 4.066406 C 21.449219 4.117188 21.460938 4.1875 21.507812 4.214844 C 21.5625 4.257812 21.621094 4.296875 21.679688 4.335938 Z M 21.679688 4.335938 " fill-opacity="1" fill-rule="nonzero"/><path fill="#000000" d="M 11.339844 25.328125 C 11.28125 25.308594 11.226562 25.339844 11.207031 25.394531 C 11.191406 25.453125 11.21875 25.511719 11.277344 25.527344 C 11.347656 25.550781 11.414062 25.570312 11.476562 25.589844 C 11.488281 25.597656 11.496094 25.597656 11.507812 25.597656 C 11.550781 25.597656 11.59375 25.570312 11.609375 25.523438 C 11.632812 25.464844 11.597656 25.402344 11.542969 25.390625 C 11.472656 25.371094 11.410156 25.351562 11.339844 25.328125 Z M 11.339844 25.328125 " fill-opacity="1" fill-rule="nonzero"/><path fill="#000000" d="M 13.382812 25.777344 C 13.324219 25.769531 13.273438 25.808594 13.261719 25.867188 C 13.257812 25.925781 13.296875 25.976562 13.355469 25.988281 C 13.421875 26 13.496094 26.007812 13.566406 26.011719 C 13.570312 26.011719 13.570312 26.011719 13.578125 26.011719 C 13.628906 26.011719 13.675781 25.972656 13.679688 25.917969 C 13.6875 25.855469 13.648438 25.804688 13.589844 25.800781 C 13.519531 25.792969 13.453125 25.78125 13.382812 25.777344 Z M 13.382812 25.777344 " fill-opacity="1" fill-rule="nonzero"/><path fill="#000000" d="M 14.421875 25.863281 C 14.363281 25.863281 14.3125 25.910156 14.3125 25.964844 C 14.3125 26.023438 14.359375 26.074219 14.414062 26.074219 C 14.484375 26.074219 14.558594 26.082031 14.628906 26.082031 C 14.683594 26.082031 14.730469 26.035156 14.730469 25.976562 C 14.738281 25.914062 14.691406 25.867188 14.628906 25.867188 C 14.558594 25.867188 14.488281 25.863281 14.421875 25.863281 Z M 14.421875 25.863281 " fill-opacity="1" fill-rule="nonzero"/><path fill="#000000" d="M 22.5625 21.71875 C 20.59375 23.699219 17.878906 24.917969 14.886719 24.917969 L 14.886719 24.925781 C 11.890625 24.917969 9.175781 23.699219 7.214844 21.722656 C 5.242188 19.753906 4.027344 17.023438 4.027344 14.019531 C 4.027344 11.015625 5.242188 8.292969 7.210938 6.324219 C 9.175781 4.34375 11.890625 3.121094 14.886719 3.121094 L 14.886719 2.679688 C 11.769531 2.679688 8.941406 3.953125 6.898438 6.007812 L 6.894531 6 C 4.851562 8.0625 3.582031 10.894531 3.582031 14.019531 C 3.582031 17.144531 4.851562 19.984375 6.898438 22.035156 L 6.894531 22.039062 C 8.941406 24.09375 11.765625 25.367188 14.886719 25.367188 L 14.886719 25.363281 C 18 25.363281 20.828125 24.089844 22.878906 22.035156 Z M 22.5625 21.71875 " fill-opacity="1" fill-rule="nonzero"/><path fill="#000000" d="M 20.730469 5.8125 C 20.65625 5.910156 20.675781 6.050781 20.777344 6.128906 C 21.152344 6.410156 21.832031 7.054688 21.832031 7.054688 C 22.121094 7.347656 22.394531 7.652344 22.640625 7.976562 C 22.6875 8.03125 22.757812 8.0625 22.820312 8.0625 C 22.867188 8.0625 22.917969 8.042969 22.957031 8.015625 C 23.054688 7.941406 23.074219 7.796875 22.996094 7.699219 C 22.734375 7.359375 22.144531 6.738281 22.144531 6.738281 C 21.796875 6.386719 21.433594 6.0625 21.046875 5.765625 C 20.949219 5.691406 20.804688 5.707031 20.730469 5.8125 Z M 20.730469 5.8125 " fill-opacity="1" fill-rule="nonzero"/><path fill="#000000" d="M 21.992188 21.414062 C 22.035156 21.371094 22.078125 21.324219 22.121094 21.285156 L 21.804688 20.96875 C 21.765625 21.007812 21.722656 21.050781 21.683594 21.089844 C 21.597656 21.175781 21.59375 21.3125 21.679688 21.40625 C 21.722656 21.453125 21.78125 21.476562 21.839844 21.476562 C 21.894531 21.476562 21.953125 21.453125 21.992188 21.414062 Z M 21.992188 21.414062 " fill-opacity="1" fill-rule="nonzero"/><path fill="#000000" d="M 23.625 18.941406 C 23.515625 18.878906 23.375 18.914062 23.3125 19.023438 C 22.894531 19.730469 22.382812 20.382812 21.804688 20.964844 L 22.121094 21.28125 C 22.734375 20.675781 23.261719 19.996094 23.703125 19.253906 C 23.765625 19.144531 23.730469 19.003906 23.625 18.941406 Z M 23.625 18.941406 " fill-opacity="1" fill-rule="nonzero"/><path fill="#000000" d="M 24.839844 12.996094 C 24.851562 12.996094 24.855469 12.996094 24.867188 12.996094 C 24.988281 12.976562 25.082031 12.867188 25.0625 12.742188 C 24.953125 11.828125 24.71875 10.929688 24.367188 10.078125 C 24.324219 9.960938 24.191406 9.902344 24.078125 9.957031 C 23.960938 10 23.90625 10.132812 23.957031 10.25 C 24.289062 11.066406 24.511719 11.925781 24.617188 12.800781 C 24.628906 12.914062 24.726562 12.996094 24.839844 12.996094 Z M 24.839844 12.996094 " fill-opacity="1" fill-rule="nonzero"/><path fill="#000000" d="M 14.5 24.296875 L 14.507812 24.296875 C 14.628906 24.296875 14.726562 24.199219 14.730469 24.078125 C 14.738281 23.949219 14.640625 23.847656 14.511719 23.839844 C 13.636719 23.808594 12.761719 23.664062 11.929688 23.398438 C 11.8125 23.363281 11.683594 23.425781 11.648438 23.546875 C 11.617188 23.667969 11.679688 23.796875 11.800781 23.832031 C 12.671875 24.105469 13.582031 24.261719 14.5 24.296875 Z M 14.5 24.296875 " fill-opacity="1" fill-rule="nonzero"/><path fill="#000000" d="M 16.957031 23.851562 C 16.980469 23.957031 17.070312 24.027344 17.175781 24.027344 C 17.191406 24.027344 17.210938 24.027344 17.226562 24.019531 C 18.121094 23.808594 18.980469 23.480469 19.785156 23.035156 C 19.894531 22.976562 19.933594 22.839844 19.875 22.730469 C 19.820312 22.625 19.683594 22.585938 19.574219 22.644531 C 18.804688 23.0625 17.976562 23.382812 17.125 23.582031 C 17.003906 23.609375 16.929688 23.730469 16.957031 23.851562 Z M 16.957031 23.851562 " fill-opacity="1" fill-rule="nonzero"/><path fill="#000000" d="M 7.632812 21.304688 C 8.144531 21.808594 8.707031 22.265625 9.316406 22.65625 C 9.355469 22.679688 9.394531 22.691406 9.4375 22.691406 C 9.511719 22.691406 9.578125 22.65625 9.625 22.585938 C 9.695312 22.484375 9.660156 22.34375 9.554688 22.277344 C 8.976562 21.902344 8.441406 21.464844 7.949219 20.980469 C 7.816406 20.84375 7.6875 20.703125 7.558594 20.570312 C 7.480469 20.480469 7.335938 20.472656 7.242188 20.554688 C 7.152344 20.636719 7.144531 20.777344 7.226562 20.871094 C 7.359375 21.019531 7.496094 21.160156 7.632812 21.304688 Z M 7.632812 21.304688 " fill-opacity="1" fill-rule="nonzero"/><path fill="#000000" d="M 15.746094 3.957031 C 15.734375 4.078125 15.820312 4.1875 15.945312 4.203125 C 16.820312 4.300781 17.679688 4.515625 18.496094 4.839844 C 18.523438 4.847656 18.550781 4.855469 18.574219 4.855469 C 18.667969 4.855469 18.746094 4.804688 18.78125 4.710938 C 18.828125 4.597656 18.769531 4.464844 18.65625 4.417969 C 17.800781 4.078125 16.90625 3.851562 15.992188 3.753906 C 15.871094 3.742188 15.757812 3.832031 15.746094 3.957031 Z M 15.746094 3.957031 " fill-opacity="1" fill-rule="nonzero"/><path fill="#000000" d="M 24.144531 14.027344 C 24.144531 11.457031 23.105469 9.136719 21.4375 7.457031 C 19.761719 5.777344 17.445312 4.734375 14.890625 4.734375 C 12.339844 4.734375 10.027344 5.777344 8.351562 7.457031 C 6.675781 9.136719 5.636719 11.457031 5.636719 14.019531 C 5.636719 16.582031 6.675781 18.894531 8.34375 20.578125 C 10.019531 22.257812 12.332031 23.304688 14.886719 23.304688 L 14.886719 22.835938 C 12.464844 22.835938 10.265625 21.839844 8.679688 20.242188 C 7.082031 18.648438 6.101562 16.449219 6.101562 14.015625 C 6.101562 11.585938 7.089844 9.378906 8.679688 7.785156 C 10.265625 6.195312 12.464844 5.207031 14.886719 5.207031 C 17.308594 5.207031 19.507812 6.195312 21.097656 7.792969 C 22.6875 9.386719 23.675781 11.589844 23.675781 14.03125 C 23.675781 16.460938 22.6875 18.65625 21.097656 20.253906 L 21.433594 20.589844 C 23.105469 18.90625 24.144531 16.585938 24.144531 14.027344 Z M 24.144531 14.027344 " fill-opacity="1" fill-rule="nonzero"/><path fill="#000000" d="M 21.878906 10.335938 C 21.917969 10.335938 21.960938 10.324219 22 10.308594 C 22.113281 10.242188 22.160156 10.09375 22.089844 9.972656 C 21.765625 9.386719 21.363281 8.84375 20.902344 8.355469 C 20.8125 8.257812 20.65625 8.25 20.558594 8.34375 C 20.460938 8.4375 20.457031 8.585938 20.546875 8.683594 C 20.976562 9.144531 21.355469 9.65625 21.667969 10.210938 C 21.710938 10.289062 21.792969 10.335938 21.878906 10.335938 Z M 21.878906 10.335938 " fill-opacity="1" fill-rule="nonzero"/><path fill="#000000" d="M 22.882812 13.703125 C 22.890625 13.703125 22.894531 13.703125 22.898438 13.703125 C 23.03125 13.691406 23.136719 13.578125 23.125 13.445312 C 23.078125 12.777344 22.945312 12.113281 22.738281 11.46875 C 22.699219 11.34375 22.5625 11.269531 22.429688 11.316406 C 22.304688 11.355469 22.230469 11.492188 22.273438 11.625 C 22.476562 12.230469 22.601562 12.851562 22.640625 13.480469 C 22.652344 13.605469 22.757812 13.703125 22.882812 13.703125 Z M 22.882812 13.703125 " fill-opacity="1" fill-rule="nonzero"/><path fill="#000000" d="M 8.832031 8.769531 C 8.730469 8.683594 8.574219 8.699219 8.488281 8.804688 C 8.070312 9.328125 7.707031 9.898438 7.425781 10.507812 C 7.363281 10.636719 7.421875 10.777344 7.542969 10.835938 C 7.578125 10.855469 7.609375 10.859375 7.644531 10.859375 C 7.738281 10.859375 7.824219 10.808594 7.863281 10.722656 C 8.132812 10.144531 8.464844 9.609375 8.867188 9.117188 C 8.953125 9.011719 8.9375 8.855469 8.832031 8.769531 Z M 8.832031 8.769531 " fill-opacity="1" fill-rule="nonzero"/><path fill="#000000" d="M 7.050781 16.59375 C 7.238281 17.175781 7.492188 17.738281 7.792969 18.257812 C 7.839844 18.332031 7.921875 18.378906 8.007812 18.378906 C 8.046875 18.378906 8.09375 18.367188 8.132812 18.34375 C 8.246094 18.273438 8.289062 18.125 8.21875 18.011719 C 7.925781 17.515625 7.6875 16.984375 7.507812 16.4375 C 7.492188 16.378906 7.472656 16.328125 7.457031 16.269531 C 7.417969 16.144531 7.285156 16.070312 7.152344 16.109375 C 7.027344 16.148438 6.953125 16.28125 6.992188 16.414062 C 7.007812 16.472656 7.027344 16.53125 7.050781 16.59375 Z M 7.050781 16.59375 " fill-opacity="1" fill-rule="nonzero"/><path fill="#000000" d="M 15.816406 6.042969 C 15.828125 5.910156 15.730469 5.789062 15.589844 5.777344 C 15.355469 5.757812 15.121094 5.746094 14.886719 5.746094 C 14.449219 5.746094 14.019531 5.78125 13.589844 5.851562 C 13.457031 5.875 13.367188 6 13.386719 6.132812 C 13.40625 6.253906 13.507812 6.339844 13.628906 6.339844 C 13.640625 6.339844 13.65625 6.339844 13.667969 6.335938 C 14.070312 6.269531 14.476562 6.238281 14.886719 6.238281 C 15.109375 6.238281 15.332031 6.242188 15.550781 6.265625 C 15.6875 6.277344 15.804688 6.171875 15.816406 6.042969 Z M 15.816406 6.042969 " fill-opacity="1" fill-rule="nonzero"/><path fill="#000000" d="M 19.097656 7.472656 C 19.136719 7.503906 19.183594 7.515625 19.230469 7.515625 C 19.308594 7.515625 19.390625 7.472656 19.433594 7.398438 C 19.507812 7.285156 19.476562 7.136719 19.359375 7.058594 C 18.796875 6.699219 18.191406 6.402344 17.558594 6.183594 C 17.433594 6.140625 17.296875 6.207031 17.25 6.335938 C 17.203125 6.46875 17.273438 6.609375 17.398438 6.652344 C 17.996094 6.851562 18.570312 7.136719 19.097656 7.472656 Z M 19.097656 7.472656 " fill-opacity="1" fill-rule="nonzero"/><path fill="#000000" d="M 11.667969 6.410156 C 11.046875 6.675781 10.460938 7.007812 9.929688 7.410156 C 9.820312 7.492188 9.800781 7.648438 9.882812 7.75 C 9.929688 7.8125 10.003906 7.847656 10.078125 7.847656 C 10.128906 7.847656 10.179688 7.832031 10.226562 7.796875 C 10.730469 7.417969 11.277344 7.101562 11.863281 6.851562 C 11.988281 6.800781 12.046875 6.65625 11.996094 6.53125 C 11.941406 6.402344 11.789062 6.359375 11.667969 6.410156 Z M 11.667969 6.410156 " fill-opacity="1" fill-rule="nonzero"/><path fill="#000000" d="M 7.277344 12.519531 C 7.300781 12.386719 7.214844 12.257812 7.082031 12.230469 C 6.953125 12.199219 6.824219 12.289062 6.796875 12.417969 C 6.691406 12.945312 6.640625 13.480469 6.640625 14.015625 L 6.636719 14.015625 C 6.640625 14.027344 6.640625 14.027344 6.640625 14.027344 C 6.640625 14.160156 6.648438 14.296875 6.652344 14.429688 C 6.660156 14.5625 6.769531 14.660156 6.894531 14.660156 C 6.898438 14.660156 6.898438 14.660156 6.90625 14.660156 C 7.039062 14.652344 7.140625 14.539062 7.136719 14.398438 C 7.128906 14.273438 7.125 14.148438 7.125 14.019531 L 7.128906 14.019531 C 7.128906 13.519531 7.179688 13.011719 7.277344 12.519531 Z M 7.277344 12.519531 " fill-opacity="1" fill-rule="nonzero"/><g fill="#000000" fill-opacity="1"><g transform="translate(7.151959, 18.145163)"><g/></g></g><g fill="#000000" fill-opacity="1"><g transform="translate(9.817029, 18.145163)"><g><path d="M 4.921875 -0.171875 C 4.921875 -0.128906 4.90625 -0.0859375 4.875 -0.046875 C 4.84375 -0.015625 4.800781 0 4.75 0 L 3.40625 0 C 3.289062 0 3.226562 -0.0507812 3.21875 -0.15625 L 3.140625 -1.25 L 1.796875 -0.984375 L 1.59375 -0.15625 C 1.570312 -0.0703125 1.515625 -0.03125 1.421875 -0.03125 L 0.09375 -0.046875 C 0.0390625 -0.046875 0 -0.0664062 -0.03125 -0.109375 C -0.0703125 -0.160156 -0.0859375 -0.21875 -0.078125 -0.28125 C 0.078125 -0.84375 0.285156 -1.546875 0.546875 -2.390625 C 0.679688 -2.835938 0.863281 -3.34375 1.09375 -3.90625 C 1.289062 -4.4375 1.566406 -5.113281 1.921875 -5.9375 C 1.941406 -5.988281 1.988281 -6.019531 2.0625 -6.03125 L 2.25 -6.078125 C 2.425781 -6.109375 2.5625 -6.128906 2.65625 -6.140625 C 2.707031 -6.148438 2.796875 -6.15625 2.921875 -6.15625 C 3.035156 -6.15625 3.117188 -6.15625 3.171875 -6.15625 C 3.453125 -6.132812 3.679688 -5.929688 3.859375 -5.546875 C 3.910156 -5.398438 3.972656 -5.191406 4.046875 -4.921875 C 4.117188 -4.597656 4.1875 -4.273438 4.25 -3.953125 L 4.921875 -0.21875 Z M 2.140625 -5.765625 L 2.140625 -5.828125 L 2.109375 -5.828125 L 2.109375 -5.765625 Z M 3.21875 -5.546875 L 3.21875 -5.609375 L 3.1875 -5.609375 L 3.1875 -5.546875 Z M 3.140625 -5.390625 C 3.148438 -5.410156 3.15625 -5.429688 3.15625 -5.453125 C 3.132812 -5.453125 3.125 -5.457031 3.125 -5.46875 L 3.125 -5.421875 Z M 2.109375 -5.421875 L 2.109375 -5.3125 C 2.109375 -5.332031 2.125 -5.367188 2.15625 -5.421875 Z M 3.28125 -5.390625 C 3.289062 -5.410156 3.300781 -5.421875 3.3125 -5.421875 L 3.21875 -5.421875 L 3.21875 -5.390625 C 3.21875 -5.378906 3.21875 -5.367188 3.21875 -5.359375 L 3.265625 -5.359375 C 3.265625 -5.367188 3.269531 -5.378906 3.28125 -5.390625 Z M 3.21875 -5.359375 L 3.21875 -5.375 L 3.203125 -5.421875 L 3.203125 -5.390625 Z M 3.390625 -5.3125 C 3.359375 -5.3125 3.335938 -5.289062 3.328125 -5.25 L 3.34375 -5.234375 L 3.453125 -5.234375 L 3.484375 -5.25 C 3.460938 -5.269531 3.453125 -5.289062 3.453125 -5.3125 L 3.46875 -5.328125 C 3.425781 -5.316406 3.398438 -5.3125 3.390625 -5.3125 Z M 3.359375 -5.078125 C 3.335938 -5.078125 3.328125 -5.066406 3.328125 -5.046875 C 3.335938 -5.023438 3.347656 -5.015625 3.359375 -5.015625 C 3.367188 -5.015625 3.382812 -5.007812 3.40625 -5 C 3.414062 -5.007812 3.421875 -5.019531 3.421875 -5.03125 L 3.4375 -5.046875 C 3.40625 -5.066406 3.378906 -5.078125 3.359375 -5.078125 Z M 2.640625 -5 L 2.640625 -5.015625 L 2.625 -5 Z M 2.734375 -4.90625 L 2.78125 -4.90625 C 2.78125 -4.90625 2.785156 -4.90625 2.796875 -4.90625 C 2.804688 -4.90625 2.8125 -4.90625 2.8125 -4.90625 C 2.8125 -4.925781 2.804688 -4.941406 2.796875 -4.953125 C 2.785156 -4.953125 2.773438 -4.953125 2.765625 -4.953125 L 2.71875 -4.953125 Z M 3.515625 -4.796875 C 3.515625 -4.785156 3.5 -4.773438 3.46875 -4.765625 C 3.457031 -4.765625 3.453125 -4.753906 3.453125 -4.734375 C 3.453125 -4.734375 3.457031 -4.726562 3.46875 -4.71875 L 3.515625 -4.71875 C 3.535156 -4.726562 3.546875 -4.738281 3.546875 -4.75 C 3.546875 -4.78125 3.535156 -4.796875 3.515625 -4.796875 Z M 1.546875 -4.4375 C 1.554688 -4.457031 1.550781 -4.457031 1.53125 -4.4375 C 1.507812 -4.414062 1.5 -4.40625 1.5 -4.40625 C 1.5 -4.382812 1.503906 -4.359375 1.515625 -4.328125 C 1.535156 -4.304688 1.546875 -4.296875 1.546875 -4.296875 C 1.554688 -4.316406 1.5625 -4.34375 1.5625 -4.375 C 1.5625 -4.40625 1.554688 -4.425781 1.546875 -4.4375 Z M 2.171875 -4.3125 C 2.171875 -4.3125 2.175781 -4.3125 2.1875 -4.3125 C 2.195312 -4.3125 2.207031 -4.316406 2.21875 -4.328125 L 2.171875 -4.34375 C 2.171875 -4.34375 2.171875 -4.335938 2.171875 -4.328125 Z M 1.546875 -4.078125 L 1.578125 -4.078125 L 1.578125 -4.1875 L 1.546875 -4.171875 Z M 2.578125 -4.140625 C 2.535156 -4.140625 2.5 -4.117188 2.46875 -4.078125 C 2.488281 -4.035156 2.503906 -4.007812 2.515625 -4 C 2.535156 -4 2.5625 -4.007812 2.59375 -4.03125 L 2.625 -4.09375 L 2.625 -4.109375 C 2.625 -4.117188 2.613281 -4.128906 2.59375 -4.140625 Z M 3.546875 -4.109375 L 3.609375 -4.109375 L 3.609375 -4.125 L 3.546875 -4.125 Z M 3.640625 -3.96875 C 3.640625 -4 3.625 -4.015625 3.59375 -4.015625 L 3.578125 -3.984375 L 3.59375 -3.96875 Z M 2.875 -3 C 2.84375 -3.1875 2.820312 -3.328125 2.8125 -3.421875 C 2.757812 -3.671875 2.71875 -3.859375 2.6875 -3.984375 L 2.25 -2.546875 L 2.921875 -2.5625 Z M 2.484375 -3.859375 L 2.5 -3.84375 L 2.53125 -3.921875 L 2.515625 -3.921875 Z M 3.34375 -3.859375 L 3.359375 -3.859375 L 3.34375 -3.890625 L 3.328125 -3.875 Z M 2.234375 -3.34375 C 2.253906 -3.351562 2.273438 -3.367188 2.296875 -3.390625 C 2.316406 -3.421875 2.328125 -3.445312 2.328125 -3.46875 L 2.34375 -3.53125 L 2.4375 -3.71875 L 2.390625 -3.734375 L 2.34375 -3.703125 C 2.320312 -3.679688 2.3125 -3.671875 2.3125 -3.671875 C 2.28125 -3.554688 2.265625 -3.503906 2.265625 -3.515625 C 2.242188 -3.472656 2.234375 -3.453125 2.234375 -3.453125 C 2.234375 -3.429688 2.222656 -3.414062 2.203125 -3.40625 C 2.191406 -3.394531 2.179688 -3.375 2.171875 -3.34375 L 2.109375 -3.15625 L 2.078125 -3.03125 C 2.054688 -2.976562 2.03125 -2.929688 2 -2.890625 C 1.957031 -2.847656 1.929688 -2.8125 1.921875 -2.78125 C 1.921875 -2.75 1.921875 -2.726562 1.921875 -2.71875 C 1.898438 -2.695312 1.890625 -2.671875 1.890625 -2.640625 C 1.890625 -2.609375 1.875 -2.566406 1.84375 -2.515625 C 1.820312 -2.472656 1.804688 -2.4375 1.796875 -2.40625 C 1.796875 -2.363281 1.800781 -2.34375 1.8125 -2.34375 C 1.832031 -2.34375 1.847656 -2.34375 1.859375 -2.34375 C 1.859375 -2.34375 1.867188 -2.351562 1.890625 -2.375 C 1.910156 -2.425781 1.925781 -2.476562 1.9375 -2.53125 C 1.945312 -2.582031 1.96875 -2.628906 2 -2.671875 C 2 -2.691406 2.019531 -2.71875 2.0625 -2.75 L 2.09375 -2.84375 C 2.101562 -2.863281 2.117188 -2.910156 2.140625 -2.984375 C 2.171875 -3.066406 2.203125 -3.148438 2.234375 -3.234375 Z M 3.46875 -3.546875 L 3.40625 -3.5625 L 3.40625 -3.53125 L 3.46875 -3.53125 Z M 3.640625 -3.46875 L 3.59375 -3.484375 L 3.59375 -3.46875 L 3.640625 -3.453125 Z M 3.21875 -3.421875 C 3.21875 -3.410156 3.222656 -3.40625 3.234375 -3.40625 C 3.253906 -3.40625 3.265625 -3.410156 3.265625 -3.421875 Z M 3.671875 -3.109375 C 3.703125 -3.109375 3.71875 -3.117188 3.71875 -3.140625 Z M 3.109375 -3.078125 C 3.109375 -3.085938 3.101562 -3.097656 3.09375 -3.109375 L 3.0625 -3.125 L 3.0625 -3.078125 Z M 3.421875 -3 C 3.421875 -3.039062 3.390625 -3.066406 3.328125 -3.078125 C 3.304688 -3.078125 3.296875 -3.0625 3.296875 -3.03125 L 3.34375 -3.03125 C 3.3125 -3.007812 3.3125 -2.988281 3.34375 -2.96875 L 3.421875 -2.96875 Z M 3.65625 -3.046875 C 3.695312 -3.046875 3.71875 -3.050781 3.71875 -3.0625 C 3.707031 -3.0625 3.703125 -3.0625 3.703125 -3.0625 C 3.703125 -3.070312 3.703125 -3.078125 3.703125 -3.078125 L 3.671875 -3.078125 C 3.660156 -3.078125 3.65625 -3.070312 3.65625 -3.0625 Z M 3.546875 -3.046875 C 3.554688 -3.035156 3.566406 -3.03125 3.578125 -3.03125 L 3.59375 -3.0625 C 3.59375 -3.0625 3.570312 -3.0625 3.53125 -3.0625 Z M 3.65625 -2.953125 C 3.6875 -2.941406 3.707031 -2.9375 3.71875 -2.9375 C 3.75 -2.9375 3.773438 -2.941406 3.796875 -2.953125 C 3.773438 -2.984375 3.753906 -3 3.734375 -3 L 3.65625 -3 Z M 3.421875 -2.84375 C 3.441406 -2.84375 3.457031 -2.835938 3.46875 -2.828125 L 3.515625 -2.828125 L 3.515625 -2.875 L 3.484375 -2.890625 C 3.484375 -2.890625 3.476562 -2.890625 3.46875 -2.890625 C 3.4375 -2.878906 3.421875 -2.863281 3.421875 -2.84375 Z M 3.0625 -2.875 L 3.0625 -2.84375 L 3.140625 -2.84375 L 3.140625 -2.875 Z M 3.84375 -2.828125 C 3.84375 -2.859375 3.835938 -2.875 3.828125 -2.875 L 3.734375 -2.875 C 3.703125 -2.84375 3.675781 -2.820312 3.65625 -2.8125 C 3.644531 -2.8125 3.640625 -2.804688 3.640625 -2.796875 C 3.640625 -2.773438 3.664062 -2.722656 3.71875 -2.640625 L 3.875 -2.640625 C 3.851562 -2.671875 3.832031 -2.6875 3.8125 -2.6875 C 3.789062 -2.6875 3.757812 -2.707031 3.71875 -2.75 C 3.757812 -2.757812 3.785156 -2.769531 3.796875 -2.78125 C 3.796875 -2.800781 3.8125 -2.816406 3.84375 -2.828125 Z M 1.671875 -2.84375 L 1.65625 -2.765625 C 1.65625 -2.734375 1.664062 -2.710938 1.6875 -2.703125 C 1.695312 -2.734375 1.703125 -2.757812 1.703125 -2.78125 L 1.703125 -2.84375 Z M 3.4375 -2.796875 L 3.421875 -2.8125 L 3.359375 -2.8125 L 3.359375 -2.78125 L 3.40625 -2.75 L 3.421875 -2.765625 L 3.453125 -2.765625 Z M 3.546875 -2.75 C 3.546875 -2.75 3.539062 -2.75 3.53125 -2.75 C 3.53125 -2.757812 3.53125 -2.765625 3.53125 -2.765625 L 3.515625 -2.765625 L 3.53125 -2.65625 C 3.550781 -2.675781 3.566406 -2.707031 3.578125 -2.75 Z M 3.328125 -2.703125 C 3.316406 -2.710938 3.300781 -2.710938 3.28125 -2.703125 C 3.269531 -2.703125 3.265625 -2.703125 3.265625 -2.703125 L 3.28125 -2.65625 C 3.289062 -2.664062 3.3125 -2.671875 3.34375 -2.671875 L 3.40625 -2.65625 C 3.414062 -2.65625 3.425781 -2.660156 3.4375 -2.671875 C 3.457031 -2.679688 3.46875 -2.691406 3.46875 -2.703125 Z M 3.234375 -2.609375 L 3.234375 -2.578125 L 3.25 -2.578125 L 3.265625 -2.609375 Z M 3.359375 -2.484375 C 3.367188 -2.492188 3.375 -2.503906 3.375 -2.515625 L 3.328125 -2.515625 L 3.296875 -2.5 L 3.296875 -2.484375 L 3.359375 -2.46875 C 3.359375 -2.476562 3.359375 -2.484375 3.359375 -2.484375 Z M 3.21875 -2.484375 C 3.25 -2.484375 3.253906 -2.488281 3.234375 -2.5 Z M 3.71875 -2.390625 C 3.71875 -2.390625 3.710938 -2.398438 3.703125 -2.421875 L 3.671875 -2.40625 C 3.660156 -2.40625 3.65625 -2.40625 3.65625 -2.40625 Z M 3.640625 -2.265625 C 3.628906 -2.273438 3.625 -2.289062 3.625 -2.3125 C 3.613281 -2.332031 3.609375 -2.351562 3.609375 -2.375 C 3.554688 -2.40625 3.507812 -2.414062 3.46875 -2.40625 C 3.46875 -2.394531 3.472656 -2.390625 3.484375 -2.390625 C 3.515625 -2.390625 3.535156 -2.363281 3.546875 -2.3125 L 3.546875 -2.265625 Z M 3.171875 -2.34375 L 3.171875 -2.3125 L 3.203125 -2.3125 L 3.203125 -2.34375 Z M 4.015625 -2.25 L 3.953125 -2.265625 L 3.953125 -2.25 Z M 3.359375 -2.203125 L 3.40625 -2.203125 L 3.40625 -2.25 L 3.359375 -2.25 Z M 3.171875 -2.171875 L 3.171875 -2.1875 L 3.140625 -2.1875 L 3.140625 -2.171875 Z M 2.828125 -2.140625 L 2.828125 -2.125 L 2.875 -2.125 L 2.875 -2.140625 Z M 3.0625 -2 C 3.070312 -2 3.078125 -2.015625 3.078125 -2.046875 C 3.066406 -2.046875 3.046875 -2.035156 3.015625 -2.015625 L 3.046875 -2.015625 Z M 3.359375 -1.984375 C 3.328125 -1.953125 3.3125 -1.9375 3.3125 -1.9375 C 3.34375 -1.914062 3.375 -1.90625 3.40625 -1.90625 C 3.445312 -1.9375 3.46875 -1.960938 3.46875 -1.984375 C 3.46875 -1.984375 3.457031 -1.992188 3.4375 -2.015625 C 3.414062 -2.015625 3.40625 -2.019531 3.40625 -2.03125 Z M 3.546875 -1.734375 L 3.59375 -1.734375 L 3.59375 -1.75 L 3.546875 -1.75 Z M 3.421875 -1.734375 C 3.421875 -1.703125 3.441406 -1.675781 3.484375 -1.65625 L 3.484375 -1.734375 Z M 3.78125 -1.671875 C 3.78125 -1.648438 3.785156 -1.628906 3.796875 -1.609375 C 3.816406 -1.585938 3.835938 -1.578125 3.859375 -1.578125 C 3.890625 -1.578125 3.90625 -1.582031 3.90625 -1.59375 C 3.90625 -1.59375 3.925781 -1.597656 3.96875 -1.609375 C 3.957031 -1.617188 3.945312 -1.625 3.9375 -1.625 L 3.90625 -1.640625 C 3.894531 -1.648438 3.890625 -1.679688 3.890625 -1.734375 C 3.890625 -1.703125 3.875 -1.6875 3.84375 -1.6875 Z M 1.78125 -1.65625 L 1.78125 -1.609375 L 1.875 -1.609375 L 1.875 -1.65625 Z M 1.671875 -1.484375 C 1.648438 -1.503906 1.640625 -1.523438 1.640625 -1.546875 C 1.585938 -1.566406 1.554688 -1.578125 1.546875 -1.578125 C 1.515625 -1.578125 1.488281 -1.566406 1.46875 -1.546875 C 1.457031 -1.535156 1.453125 -1.523438 1.453125 -1.515625 C 1.453125 -1.492188 1.460938 -1.472656 1.484375 -1.453125 C 1.503906 -1.429688 1.53125 -1.421875 1.5625 -1.421875 C 1.570312 -1.421875 1.582031 -1.425781 1.59375 -1.4375 L 1.6875 -1.4375 Z M 3.171875 -1.578125 L 3.171875 -1.546875 L 3.203125 -1.546875 L 3.203125 -1.578125 Z M 4.171875 -1.5625 L 4.171875 -1.578125 L 4.140625 -1.578125 L 4.140625 -1.5625 Z M 3.265625 -1.546875 C 3.285156 -1.546875 3.296875 -1.535156 3.296875 -1.515625 L 3.390625 -1.515625 L 3.390625 -1.546875 Z M 2.828125 -1.546875 L 2.8125 -1.53125 L 2.8125 -1.515625 L 2.84375 -1.515625 Z M 4.3125 -0.328125 C 4.332031 -0.328125 4.347656 -0.332031 4.359375 -0.34375 L 4.328125 -0.546875 L 4.296875 -0.765625 L 4.25 -0.8125 L 4.234375 -0.859375 C 4.234375 -0.867188 4.25 -0.890625 4.28125 -0.921875 C 4.226562 -0.953125 4.207031 -0.976562 4.21875 -1 C 4.226562 -1.03125 4.234375 -1.050781 4.234375 -1.0625 C 4.234375 -1.101562 4.21875 -1.144531 4.1875 -1.1875 C 4.175781 -1.21875 4.171875 -1.238281 4.171875 -1.25 C 4.171875 -1.269531 4.175781 -1.28125 4.1875 -1.28125 C 4.195312 -1.28125 4.203125 -1.289062 4.203125 -1.3125 C 4.203125 -1.332031 4.191406 -1.359375 4.171875 -1.390625 L 4.046875 -1.296875 L 4.03125 -1.3125 L 4.03125 -1.40625 C 4.03125 -1.4375 4.054688 -1.453125 4.109375 -1.453125 L 4.140625 -1.421875 L 4.140625 -1.5 C 4.117188 -1.507812 4.09375 -1.519531 4.0625 -1.53125 C 4.039062 -1.539062 4.023438 -1.546875 4.015625 -1.546875 C 3.984375 -1.546875 3.945312 -1.535156 3.90625 -1.515625 C 3.863281 -1.492188 3.84375 -1.46875 3.84375 -1.4375 C 3.84375 -1.4375 3.847656 -1.429688 3.859375 -1.421875 L 3.890625 -1.390625 C 3.867188 -1.367188 3.867188 -1.347656 3.890625 -1.328125 L 3.921875 -1.296875 C 3.929688 -1.296875 3.9375 -1.289062 3.9375 -1.28125 C 3.945312 -1.28125 3.953125 -1.28125 3.953125 -1.28125 C 3.929688 -1.269531 3.910156 -1.265625 3.890625 -1.265625 C 3.828125 -1.265625 3.796875 -1.25 3.796875 -1.21875 C 3.785156 -1.175781 3.78125 -1.15625 3.78125 -1.15625 C 3.789062 -1.164062 3.800781 -1.164062 3.8125 -1.15625 C 3.832031 -1.15625 3.84375 -1.144531 3.84375 -1.125 C 3.84375 -1.113281 3.835938 -1.109375 3.828125 -1.109375 C 3.816406 -1.109375 3.8125 -1.109375 3.8125 -1.109375 C 3.8125 -1.097656 3.804688 -1.085938 3.796875 -1.078125 L 3.78125 -1.046875 L 3.78125 -0.96875 C 3.789062 -0.957031 3.820312 -0.9375 3.875 -0.90625 C 3.9375 -0.882812 3.941406 -0.863281 3.890625 -0.84375 C 3.898438 -0.84375 3.929688 -0.84375 3.984375 -0.84375 C 4.003906 -0.84375 4.019531 -0.84375 4.03125 -0.84375 L 4.09375 -0.84375 L 4.09375 -0.71875 L 4.0625 -0.71875 L 4.09375 -0.6875 C 4.113281 -0.664062 4.125 -0.65625 4.125 -0.65625 C 4.125 -0.644531 4.128906 -0.640625 4.140625 -0.640625 C 4.140625 -0.640625 4.148438 -0.628906 4.171875 -0.609375 L 4.171875 -0.53125 C 4.179688 -0.5 4.203125 -0.476562 4.234375 -0.46875 C 4.234375 -0.457031 4.234375 -0.445312 4.234375 -0.4375 L 4.234375 -0.421875 C 4.234375 -0.410156 4.242188 -0.390625 4.265625 -0.359375 C 4.285156 -0.335938 4.300781 -0.328125 4.3125 -0.328125 Z M 0.96875 -1.390625 C 0.976562 -1.410156 0.96875 -1.421875 0.9375 -1.421875 L 0.9375 -1.40625 Z M 1.34375 -1.25 C 1.351562 -1.257812 1.351562 -1.273438 1.34375 -1.296875 C 1.320312 -1.285156 1.3125 -1.269531 1.3125 -1.25 C 1.3125 -1.238281 1.320312 -1.234375 1.34375 -1.234375 C 1.34375 -1.234375 1.34375 -1.238281 1.34375 -1.25 Z M 3.71875 -1.15625 C 3.71875 -1.15625 3.71875 -1.164062 3.71875 -1.1875 L 3.65625 -1.1875 C 3.65625 -1.164062 3.660156 -1.15625 3.671875 -1.15625 C 3.671875 -1.15625 3.679688 -1.144531 3.703125 -1.125 C 3.703125 -1.132812 3.703125 -1.140625 3.703125 -1.140625 C 3.703125 -1.148438 3.707031 -1.15625 3.71875 -1.15625 Z M 1.125 -1.09375 L 1.15625 -1.09375 L 1.15625 -1.140625 C 1.15625 -1.160156 1.132812 -1.171875 1.09375 -1.171875 L 1.078125 -1.15625 C 1.078125 -1.15625 1.070312 -1.15625 1.0625 -1.15625 L 1.0625 -1.109375 Z M 3.296875 -1.15625 L 3.296875 -1.125 L 3.359375 -1.125 L 3.359375 -1.15625 Z M 3.515625 -1.046875 C 3.515625 -1.066406 3.503906 -1.078125 3.484375 -1.078125 C 3.472656 -1.085938 3.46875 -1.09375 3.46875 -1.09375 L 3.46875 -1.046875 Z M 1.09375 -0.9375 C 1.09375 -0.945312 1.097656 -0.953125 1.109375 -0.953125 C 1.117188 -0.960938 1.125 -0.972656 1.125 -0.984375 L 1.1875 -1 L 1.1875 -1.03125 C 1.175781 -1.039062 1.171875 -1.046875 1.171875 -1.046875 L 1.125 -1.078125 C 1.101562 -1.023438 1.054688 -1 0.984375 -1 C 0.984375 -0.988281 0.992188 -0.972656 1.015625 -0.953125 C 1.035156 -0.929688 1.050781 -0.921875 1.0625 -0.921875 C 1.070312 -0.921875 1.082031 -0.925781 1.09375 -0.9375 Z M 3.40625 -0.984375 C 3.382812 -0.992188 3.367188 -1 3.359375 -1 L 3.375 -0.9375 L 3.46875 -0.96875 Z M 1.453125 -0.765625 C 1.460938 -0.773438 1.46875 -0.785156 1.46875 -0.796875 L 1.453125 -0.8125 C 1.441406 -0.8125 1.4375 -0.8125 1.4375 -0.8125 L 1.421875 -0.8125 L 1.375 -0.796875 L 1.421875 -0.78125 Z M 1.078125 -0.71875 C 1.066406 -0.71875 1.054688 -0.71875 1.046875 -0.71875 C 1.035156 -0.726562 1.023438 -0.738281 1.015625 -0.75 C 0.984375 -0.75 0.96875 -0.738281 0.96875 -0.71875 C 0.976562 -0.707031 1 -0.707031 1.03125 -0.71875 Z M 1.1875 -0.671875 C 1.207031 -0.691406 1.21875 -0.703125 1.21875 -0.703125 C 1.21875 -0.722656 1.207031 -0.738281 1.1875 -0.75 C 1.144531 -0.726562 1.125 -0.71875 1.125 -0.71875 Z M 3.578125 -0.671875 C 3.578125 -0.679688 3.5625 -0.703125 3.53125 -0.734375 L 3.484375 -0.703125 L 3.46875 -0.671875 Z M 3.65625 -0.265625 C 3.664062 -0.265625 3.671875 -0.265625 3.671875 -0.265625 C 3.648438 -0.304688 3.640625 -0.335938 3.640625 -0.359375 L 3.546875 -0.359375 C 3.566406 -0.335938 3.582031 -0.316406 3.59375 -0.296875 C 3.613281 -0.273438 3.632812 -0.253906 3.65625 -0.234375 Z M 3.65625 -0.265625 "/></g></g></g><g fill="#000000" fill-opacity="1"><g transform="translate(15.176342, 18.145163)"><g><path d="M 4.171875 -5.4375 C 4.316406 -5.175781 4.390625 -4.890625 4.390625 -4.578125 L 4.375 -4.421875 C 4.375 -4.222656 4.335938 -3.988281 4.265625 -3.71875 C 4.242188 -3.625 4.1875 -3.578125 4.09375 -3.578125 L 2.859375 -3.578125 C 2.804688 -3.578125 2.765625 -3.59375 2.734375 -3.625 C 2.703125 -3.664062 2.6875 -3.710938 2.6875 -3.765625 C 2.6875 -3.785156 2.6875 -3.804688 2.6875 -3.828125 L 2.828125 -4.328125 C 2.859375 -4.515625 2.875 -4.644531 2.875 -4.71875 C 2.875 -4.78125 2.863281 -4.832031 2.84375 -4.875 C 2.800781 -4.945312 2.75 -4.984375 2.6875 -4.984375 C 2.476562 -4.984375 2.289062 -4.847656 2.125 -4.578125 C 1.96875 -4.316406 1.84375 -3.992188 1.75 -3.609375 C 1.65625 -3.234375 1.609375 -2.882812 1.609375 -2.5625 C 1.609375 -2.257812 1.640625 -1.988281 1.703125 -1.75 C 1.773438 -1.507812 1.910156 -1.375 2.109375 -1.34375 C 2.328125 -1.3125 2.535156 -1.394531 2.734375 -1.59375 C 2.742188 -1.601562 2.785156 -1.648438 2.859375 -1.734375 L 2.96875 -1.890625 C 3.070312 -2.046875 3.191406 -2.234375 3.328125 -2.453125 C 3.359375 -2.503906 3.40625 -2.53125 3.46875 -2.53125 C 3.519531 -2.53125 3.566406 -2.515625 3.609375 -2.484375 L 4.140625 -1.921875 C 4.171875 -1.890625 4.1875 -1.851562 4.1875 -1.8125 C 4.1875 -1.769531 4.179688 -1.738281 4.171875 -1.71875 C 3.910156 -1.238281 3.675781 -0.894531 3.46875 -0.6875 C 3 -0.226562 2.484375 0 1.921875 0 C 1.710938 0 1.507812 -0.03125 1.3125 -0.09375 C 0.882812 -0.207031 0.539062 -0.488281 0.28125 -0.9375 C 0.03125 -1.394531 -0.09375 -1.9375 -0.09375 -2.5625 C -0.09375 -3.726562 0.285156 -4.726562 1.046875 -5.5625 C 1.441406 -6 1.96875 -6.21875 2.625 -6.21875 C 2.6875 -6.21875 2.78125 -6.210938 2.90625 -6.203125 C 3.1875 -6.171875 3.429688 -6.09375 3.640625 -5.96875 C 3.859375 -5.851562 4.035156 -5.675781 4.171875 -5.4375 Z M 3 -6.109375 C 2.96875 -6.085938 2.953125 -6.070312 2.953125 -6.0625 C 2.992188 -6.039062 3.019531 -6.03125 3.03125 -6.03125 C 3.03125 -6.03125 3.050781 -6.035156 3.09375 -6.046875 C 3.113281 -6.054688 3.140625 -6.0625 3.171875 -6.0625 L 3.140625 -6.078125 C 3.117188 -6.085938 3.09375 -6.09375 3.0625 -6.09375 Z M 3.0625 -5.890625 C 3.050781 -5.921875 3.054688 -5.9375 3.078125 -5.9375 C 3.097656 -5.945312 3.128906 -5.953125 3.171875 -5.953125 C 3.171875 -5.953125 3.179688 -5.96875 3.203125 -6 L 3.265625 -6.015625 C 3.285156 -6.023438 3.300781 -6.035156 3.3125 -6.046875 C 3.300781 -6.054688 3.285156 -6.0625 3.265625 -6.0625 C 3.234375 -6.0625 3.21875 -6.066406 3.21875 -6.078125 C 3.207031 -6.066406 3.203125 -6.054688 3.203125 -6.046875 C 3.210938 -6.023438 3.210938 -6.015625 3.203125 -6.015625 C 3.171875 -6.003906 3.15625 -5.988281 3.15625 -5.96875 C 3.144531 -5.957031 3.128906 -5.953125 3.109375 -5.953125 C 3.085938 -5.953125 3.070312 -5.953125 3.0625 -5.953125 C 3.050781 -5.953125 3.039062 -5.953125 3.03125 -5.953125 C 3.03125 -5.953125 3.023438 -5.953125 3.015625 -5.953125 C 3.015625 -5.960938 3.015625 -5.972656 3.015625 -5.984375 C 3.015625 -5.992188 3.007812 -6.003906 3 -6.015625 C 2.96875 -6.003906 2.9375 -5.988281 2.90625 -5.96875 C 2.9375 -5.957031 2.945312 -5.941406 2.9375 -5.921875 L 3.0625 -5.875 Z M 2.046875 -5.96875 C 2.046875 -5.976562 2.046875 -5.988281 2.046875 -6 L 2.046875 -6.015625 L 1.90625 -6.015625 C 1.9375 -6.015625 1.957031 -6.007812 1.96875 -6 C 1.976562 -6 1.984375 -5.988281 1.984375 -5.96875 L 2.015625 -5.953125 C 2.035156 -5.953125 2.046875 -5.957031 2.046875 -5.96875 Z M 2.25 -5.96875 L 2.28125 -6.015625 L 2.203125 -6.015625 L 2.203125 -5.96875 Z M 3.390625 -5.953125 L 3.390625 -5.9375 L 3.421875 -5.9375 L 3.421875 -5.953125 Z M 2.328125 -5.875 L 2.359375 -5.890625 C 2.335938 -5.898438 2.328125 -5.914062 2.328125 -5.9375 L 2.265625 -5.9375 C 2.253906 -5.9375 2.25 -5.929688 2.25 -5.921875 C 2.25 -5.910156 2.257812 -5.898438 2.28125 -5.890625 Z M 2.875 -5.859375 C 2.894531 -5.847656 2.90625 -5.835938 2.90625 -5.828125 L 2.921875 -5.859375 C 2.929688 -5.867188 2.929688 -5.878906 2.921875 -5.890625 C 2.910156 -5.890625 2.894531 -5.878906 2.875 -5.859375 Z M 2.3125 -5.8125 C 2.289062 -5.820312 2.28125 -5.832031 2.28125 -5.84375 L 2.25 -5.84375 C 2.238281 -5.820312 2.226562 -5.8125 2.21875 -5.8125 C 2.226562 -5.8125 2.234375 -5.8125 2.234375 -5.8125 C 2.242188 -5.8125 2.253906 -5.8125 2.265625 -5.8125 C 2.273438 -5.800781 2.289062 -5.796875 2.3125 -5.796875 Z M 2.203125 -5.609375 L 2.203125 -5.59375 L 2.21875 -5.578125 L 2.234375 -5.59375 Z M 2.96875 -5.390625 C 2.976562 -5.398438 2.984375 -5.410156 2.984375 -5.421875 C 2.972656 -5.421875 2.96875 -5.421875 2.96875 -5.421875 Z M 2.859375 -5.3125 L 2.859375 -5.1875 L 2.9375 -5.203125 L 2.9375 -5.3125 Z M 2.40625 -5.1875 L 2.375 -5.125 L 2.34375 -5.078125 L 2.40625 -5.078125 C 2.40625 -5.085938 2.410156 -5.097656 2.421875 -5.109375 C 2.429688 -5.117188 2.4375 -5.125 2.4375 -5.125 L 2.453125 -5.1875 Z M 3.34375 -4.953125 C 3.34375 -4.984375 3.316406 -5 3.265625 -5 L 3.265625 -4.90625 L 3.296875 -4.875 L 3.328125 -4.921875 C 3.335938 -4.929688 3.34375 -4.941406 3.34375 -4.953125 Z M 3.59375 -4.859375 L 3.59375 -4.890625 C 3.59375 -4.898438 3.597656 -4.90625 3.609375 -4.90625 L 3.609375 -4.921875 L 3.515625 -4.921875 L 3.484375 -4.875 Z M 3.46875 -4.734375 C 3.46875 -4.679688 3.492188 -4.65625 3.546875 -4.65625 L 3.59375 -4.671875 C 3.601562 -4.679688 3.613281 -4.6875 3.625 -4.6875 C 3.632812 -4.6875 3.640625 -4.6875 3.640625 -4.6875 L 3.671875 -4.703125 L 3.671875 -4.75 C 3.648438 -4.769531 3.640625 -4.78125 3.640625 -4.78125 L 3.609375 -4.796875 C 3.585938 -4.804688 3.566406 -4.8125 3.546875 -4.8125 C 3.535156 -4.8125 3.519531 -4.800781 3.5 -4.78125 C 3.488281 -4.757812 3.476562 -4.742188 3.46875 -4.734375 Z M 1.625 -4.78125 L 1.609375 -4.78125 C 1.597656 -4.78125 1.59375 -4.773438 1.59375 -4.765625 L 1.640625 -4.765625 Z M 3.375 -4.671875 C 3.382812 -4.679688 3.359375 -4.707031 3.296875 -4.75 L 3.296875 -4.734375 C 3.285156 -4.710938 3.269531 -4.695312 3.25 -4.6875 C 3.238281 -4.6875 3.234375 -4.6875 3.234375 -4.6875 C 3.222656 -4.6875 3.210938 -4.6875 3.203125 -4.6875 L 3.15625 -4.671875 L 3.15625 -4.640625 C 3.175781 -4.628906 3.195312 -4.625 3.21875 -4.625 C 3.226562 -4.613281 3.242188 -4.609375 3.265625 -4.609375 L 3.328125 -4.625 Z M 3.671875 -4.609375 L 3.609375 -4.59375 C 3.597656 -4.59375 3.582031 -4.597656 3.5625 -4.609375 L 3.546875 -4.625 L 3.53125 -4.625 C 3.5 -4.59375 3.484375 -4.5625 3.484375 -4.53125 L 3.546875 -4.5 C 3.578125 -4.488281 3.597656 -4.484375 3.609375 -4.484375 L 3.640625 -4.5 C 3.640625 -4.53125 3.628906 -4.546875 3.609375 -4.546875 L 3.640625 -4.5625 L 3.65625 -4.5625 C 3.65625 -4.570312 3.65625 -4.578125 3.65625 -4.578125 C 3.664062 -4.585938 3.671875 -4.59375 3.671875 -4.59375 L 3.703125 -4.609375 Z M 1.296875 -4.5625 L 1.296875 -4.53125 L 1.328125 -4.53125 L 1.328125 -4.5625 Z M 1.125 -4.34375 C 1.113281 -4.363281 1.109375 -4.378906 1.109375 -4.390625 C 1.109375 -4.441406 1.085938 -4.476562 1.046875 -4.5 C 1.015625 -4.507812 1.003906 -4.523438 1.015625 -4.546875 C 0.984375 -4.523438 0.96875 -4.503906 0.96875 -4.484375 C 0.96875 -4.484375 0.976562 -4.476562 1 -4.46875 C 1.019531 -4.457031 1.039062 -4.453125 1.0625 -4.453125 C 1.0625 -4.429688 1.050781 -4.410156 1.03125 -4.390625 L 1 -4.34375 C 1 -4.3125 1.003906 -4.296875 1.015625 -4.296875 L 1.03125 -4.296875 C 1.03125 -4.304688 1.035156 -4.3125 1.046875 -4.3125 C 1.054688 -4.3125 1.066406 -4.304688 1.078125 -4.296875 C 1.078125 -4.296875 1.082031 -4.289062 1.09375 -4.28125 C 1.09375 -4.289062 1.097656 -4.300781 1.109375 -4.3125 Z M 1.25 -4.46875 C 1.25 -4.46875 1.242188 -4.472656 1.234375 -4.484375 L 1.203125 -4.5 L 1.1875 -4.5 C 1.1875 -4.488281 1.179688 -4.484375 1.171875 -4.484375 Z M 1.296875 -4.484375 C 1.296875 -4.484375 1.296875 -4.476562 1.296875 -4.46875 Z M 0.78125 -4.34375 C 0.789062 -4.320312 0.804688 -4.3125 0.828125 -4.3125 L 0.84375 -4.34375 C 0.820312 -4.363281 0.800781 -4.375 0.78125 -4.375 Z M 0.625 -4.265625 C 0.644531 -4.253906 0.660156 -4.25 0.671875 -4.25 L 0.71875 -4.25 Z M 0.78125 -4.234375 C 0.832031 -4.234375 0.875 -4.226562 0.90625 -4.21875 C 0.914062 -4.226562 0.921875 -4.242188 0.921875 -4.265625 L 0.78125 -4.265625 Z M 1.046875 -4.21875 L 1.046875 -4.1875 L 1.09375 -4.1875 L 1.09375 -4.21875 Z M 1.828125 -4.1875 L 1.828125 -4.15625 L 1.84375 -4.15625 L 1.84375 -4.1875 Z M 3.71875 -4.140625 L 3.71875 -4.125 L 3.734375 -4.125 Z M 0.734375 -4.078125 C 0.722656 -4.085938 0.71875 -4.09375 0.71875 -4.09375 L 0.65625 -4.09375 L 0.65625 -4.078125 C 0.65625 -4.046875 0.675781 -4.023438 0.71875 -4.015625 C 0.738281 -4.023438 0.75 -4.035156 0.75 -4.046875 C 0.75 -4.066406 0.742188 -4.078125 0.734375 -4.078125 Z M 1.015625 -3.953125 C 0.929688 -4.015625 0.878906 -4.046875 0.859375 -4.046875 L 0.8125 -4.046875 C 0.832031 -4.035156 0.84375 -4.019531 0.84375 -4 C 0.84375 -3.976562 0.84375 -3.96875 0.84375 -3.96875 L 0.8125 -3.96875 L 0.8125 -3.984375 L 0.796875 -3.984375 L 0.78125 -3.96875 C 0.769531 -3.96875 0.757812 -3.960938 0.75 -3.953125 L 0.78125 -3.953125 C 0.78125 -3.941406 0.78125 -3.929688 0.78125 -3.921875 C 0.800781 -3.921875 0.828125 -3.929688 0.859375 -3.953125 C 0.890625 -3.960938 0.910156 -3.96875 0.921875 -3.96875 L 0.953125 -3.953125 C 0.953125 -3.953125 0.960938 -3.953125 0.984375 -3.953125 Z M 0.640625 -3.921875 C 0.640625 -3.941406 0.625 -3.957031 0.59375 -3.96875 C 0.59375 -3.957031 0.597656 -3.945312 0.609375 -3.9375 C 0.617188 -3.925781 0.628906 -3.921875 0.640625 -3.921875 Z M 0.46875 -3.953125 L 0.46875 -3.9375 L 0.515625 -3.9375 L 0.515625 -3.953125 Z M 1.078125 -3.84375 C 1.078125 -3.863281 1.066406 -3.890625 1.046875 -3.921875 C 1.035156 -3.890625 1.03125 -3.867188 1.03125 -3.859375 C 1.03125 -3.847656 1.035156 -3.828125 1.046875 -3.796875 L 1.0625 -3.796875 Z M 0.9375 -3.890625 L 0.9375 -3.859375 L 1 -3.859375 L 1 -3.875 Z M 0.71875 -3.703125 C 0.726562 -3.703125 0.738281 -3.707031 0.75 -3.71875 L 0.78125 -3.71875 L 0.78125 -3.765625 C 0.757812 -3.765625 0.75 -3.769531 0.75 -3.78125 L 0.734375 -3.734375 Z M 0.46875 -3.671875 C 0.5 -3.691406 0.515625 -3.710938 0.515625 -3.734375 L 0.484375 -3.734375 C 0.441406 -3.722656 0.421875 -3.710938 0.421875 -3.703125 Z M 0.78125 -3.671875 L 0.78125 -3.640625 L 0.8125 -3.640625 L 0.828125 -3.671875 Z M 0.640625 -3.5625 L 0.65625 -3.578125 C 0.65625 -3.578125 0.65625 -3.582031 0.65625 -3.59375 L 0.65625 -3.609375 L 0.59375 -3.609375 L 0.59375 -3.5625 Z M 0.6875 -3.40625 C 0.675781 -3.40625 0.65625 -3.40625 0.625 -3.40625 L 0.578125 -3.40625 L 0.59375 -3.390625 L 0.59375 -3.359375 C 0.632812 -3.359375 0.675781 -3.351562 0.71875 -3.34375 L 0.71875 -3.390625 Z M 0.71875 -3.328125 C 0.695312 -3.328125 0.6875 -3.3125 0.6875 -3.28125 L 0.6875 -3.265625 C 0.695312 -3.265625 0.707031 -3.257812 0.71875 -3.25 Z M 1.046875 -3.09375 C 1.054688 -3.113281 1.0625 -3.148438 1.0625 -3.203125 C 1.0625 -3.234375 1.054688 -3.253906 1.046875 -3.265625 C 1.035156 -3.242188 1.03125 -3.222656 1.03125 -3.203125 C 1.03125 -3.171875 1.035156 -3.148438 1.046875 -3.140625 Z M -0.015625 -2.78125 L -0.015625 -2.765625 L -0.03125 -2.734375 C -0.03125 -2.710938 -0.0234375 -2.703125 -0.015625 -2.703125 L 0 -2.671875 C 0.03125 -2.691406 0.046875 -2.707031 0.046875 -2.71875 L 0.046875 -2.78125 Z M 3.46875 -2.34375 C 3.457031 -2.332031 3.460938 -2.3125 3.484375 -2.28125 C 3.484375 -2.289062 3.492188 -2.300781 3.515625 -2.3125 C 3.515625 -2.320312 3.515625 -2.332031 3.515625 -2.34375 L 3.46875 -2.375 C 3.46875 -2.363281 3.46875 -2.363281 3.46875 -2.375 Z M 0.265625 -1.65625 L 0.234375 -1.671875 L 0.171875 -1.671875 L 0.140625 -1.65625 L 0.140625 -1.625 L 0.15625 -1.609375 L 0.171875 -1.609375 C 0.179688 -1.609375 0.191406 -1.609375 0.203125 -1.609375 Z M 0.875 -1.5625 L 0.875 -1.484375 L 0.90625 -1.484375 L 0.90625 -1.5625 Z M 2.703125 -0.28125 L 2.765625 -0.390625 L 2.734375 -0.40625 L 2.6875 -0.28125 Z M 1.75 -0.25 C 1.707031 -0.226562 1.6875 -0.210938 1.6875 -0.203125 L 1.765625 -0.203125 L 1.75 -0.234375 Z M 1.75 -0.25 "/></g></g></g></svg>